<?xml version="1.0" encoding="UTF-8" standalone="no"?>
<!-- Created with Inkscape (http://www.inkscape.org/) -->

<svg
   xmlns:dc="http://purl.org/dc/elements/1.1/"
   xmlns:cc="http://creativecommons.org/ns#"
   xmlns:rdf="http://www.w3.org/1999/02/22-rdf-syntax-ns#"
   xmlns:svg="http://www.w3.org/2000/svg"
   xmlns="http://www.w3.org/2000/svg"
   xmlns:sodipodi="http://sodipodi.sourceforge.net/DTD/sodipodi-0.dtd"
   xmlns:inkscape="http://www.inkscape.org/namespaces/inkscape"
   width="6in"
   height="9in"
   viewBox="0 0 540.00001 810.00002"
   id="svg2"
   version="1.1"
   inkscape:version="0.91 r13725"
   sodipodi:docname="2.svg"
   inkscape:export-filename="C:\Users\alyx\Desktop\frontcover.png"
   inkscape:export-xdpi="164.20203"
   inkscape:export-ydpi="164.20203">
  <defs
     id="defs4" />
  <sodipodi:namedview
     id="base"
     pagecolor="#ffffff"
     bordercolor="#666666"
     borderopacity="1.0"
     inkscape:pageopacity="1"
     inkscape:pageshadow="2"
     inkscape:zoom="0.7"
     inkscape:cx="-222.84239"
     inkscape:cy="459.60431"
     inkscape:document-units="px"
     inkscape:current-layer="layer1"
     showgrid="false"
     inkscape:window-width="1920"
     inkscape:window-height="1021"
     inkscape:window-x="-8"
     inkscape:window-y="-8"
     inkscape:window-maximized="1"
     showguides="false"
     units="in" />
  <metadata
     id="metadata7">
    <rdf:RDF>
      <cc:Work
         rdf:about="">
        <dc:format>image/svg+xml</dc:format>
        <dc:type
           rdf:resource="http://purl.org/dc/dcmitype/StillImage" />
        <dc:title></dc:title>
      </cc:Work>
    </rdf:RDF>
  </metadata>
  <g
     inkscape:label="Layer 1"
     inkscape:groupmode="layer"
     id="layer1"
     transform="translate(0,-242.36215)">
    <rect
       style="color:#000000;clip-rule:nonzero;display:inline;overflow:visible;visibility:visible;opacity:1;isolation:auto;mix-blend-mode:normal;color-interpolation:sRGB;color-interpolation-filters:linearRGB;solid-color:#000000;solid-opacity:1;fill:#beec32;fill-opacity:1;fill-rule:nonzero;stroke:none;stroke-width:1px;stroke-linecap:butt;stroke-linejoin:miter;stroke-miterlimit:4;stroke-dasharray:none;stroke-dashoffset:0;stroke-opacity:1;color-rendering:auto;image-rendering:auto;shape-rendering:auto;text-rendering:auto;enable-background:accumulate"
       id="rect3347"
       width="540"
       height="810"
       x="0"
       y="242.36212" />
    <g
       style="font-style:normal;font-weight:normal;font-size:29.23146248px;line-height:125%;font-family:sans-serif;letter-spacing:0px;word-spacing:0px;fill:#4d4d4d;fill-opacity:1;stroke:none;stroke-width:1px;stroke-linecap:butt;stroke-linejoin:miter;stroke-opacity:1"
       id="text3336">
      <path
         d="m 66.812608,362.17437 0.168081,0 10.168894,-28.48972 13.866675,0 q -0.420202,0.67233 -0.756364,1.59677 -0.336162,0.84041 -0.336162,1.84889 0,1.00849 0.08404,2.18505 0.168081,1.17657 0.336162,2.52122 l 6.807277,44.12123 q 0.420202,2.2691 1.176566,4.37011 0.840405,2.01697 1.764853,3.19353 l -18.152741,0 q 0.504243,-0.58828 1.008486,-1.34464 0.588283,-0.75637 0.588283,-1.93293 0,-0.75637 0,-1.59677 0,-0.92445 -0.168081,-2.10101 l -3.025456,-28.57376 -0.168081,0 -13.194351,36.89376 -0.672324,0 -13.446472,-36.89376 -0.168081,0 -2.605254,29.078 q -0.168081,1.17657 -0.168081,2.01697 0,0.75636 0,1.17657 0,1.17656 0.504243,1.93293 0.588283,0.75636 1.092526,1.34464 l -18.068697,0 q 0.924445,-1.17656 1.680809,-3.19353 0.756364,-2.10101 1.176566,-4.37011 l 6.891317,-44.12123 q 0.168081,-1.34465 0.252122,-2.52122 0.16808,-1.17656 0.16808,-2.18505 0,-1.00848 -0.336161,-1.84889 -0.336162,-0.92444 -0.756364,-1.59677 l 14.286876,0 10.000814,28.48972 z"
         style="font-style:normal;font-variant:normal;font-weight:normal;font-stretch:normal;font-size:84.04045105px;font-family:'SerifGothic LT Heavy';-inkscape-font-specification:'SerifGothic LT Heavy, ';letter-spacing:-1.02310121px;fill:#4d4d4d;fill-opacity:1"
         id="path4145" />
      <path
         d="m 102.96427,339.90365 q 0,-2.43718 -0.50424,-3.94991 -0.4202,-1.59676 -1.59677,-2.26909 l 18.0687,0 q -1.17657,0.67233 -1.68081,2.26909 -0.4202,1.51273 -0.4202,3.94991 l 0,47.39881 q 0,2.43717 0.4202,4.03394 0.50424,1.51273 1.68081,2.18505 l -18.0687,0 q 1.17657,-0.67232 1.59677,-2.18505 0.50424,-1.59677 0.50424,-4.03394 l 0,-47.39881 z"
         style="font-style:normal;font-variant:normal;font-weight:normal;font-stretch:normal;font-size:84.04045105px;font-family:'SerifGothic LT Heavy';-inkscape-font-specification:'SerifGothic LT Heavy, ';letter-spacing:-1.02310121px;fill:#4d4d4d;fill-opacity:1"
         id="path4147" />
      <path
         d="m 153.40282,362.17437 0.16808,0 10.16889,-28.48972 13.86668,0 q -0.4202,0.67233 -0.75637,1.59677 -0.33616,0.84041 -0.33616,1.84889 0,1.00849 0.084,2.18505 0.16808,1.17657 0.33616,2.52122 l 6.80728,44.12123 q 0.4202,2.2691 1.17657,4.37011 0.8404,2.01697 1.76485,3.19353 l -18.15274,0 q 0.50424,-0.58828 1.00848,-1.34464 0.58829,-0.75637 0.58829,-1.93293 0,-0.75637 0,-1.59677 0,-0.92445 -0.16808,-2.10101 l -3.02546,-28.57376 -0.16808,0 -13.19435,36.89376 -0.67232,0 -13.44648,-36.89376 -0.16808,0 -2.60525,29.078 q -0.16808,1.17657 -0.16808,2.01697 0,0.75636 0,1.17657 0,1.17656 0.50424,1.93293 0.58828,0.75636 1.09253,1.34464 l -18.0687,0 q 0.92444,-1.17656 1.68081,-3.19353 0.75636,-2.10101 1.17656,-4.37011 l 6.89132,-44.12123 q 0.16808,-1.34465 0.25212,-2.52122 0.16808,-1.17656 0.16808,-2.18505 0,-1.00848 -0.33616,-1.84889 -0.33616,-0.92444 -0.75636,-1.59677 l 14.28687,0 10.00082,28.48972 z"
         style="font-style:normal;font-variant:normal;font-weight:normal;font-stretch:normal;font-size:84.04045105px;font-family:'SerifGothic LT Heavy';-inkscape-font-specification:'SerifGothic LT Heavy, ';letter-spacing:-1.02310121px;fill:#4d4d4d;fill-opacity:1"
         id="path4149" />
      <path
         d="m 219.17988,393.52145 q 1.17656,-0.67232 1.59677,-2.18505 0.50424,-1.59677 0.50424,-4.03394 l 0,-40.67558 -7.0594,0 q -1.59677,0 -2.43717,0.67233 -0.84041,0.58828 -1.76485,1.51272 l 0,-15.12728 36.38951,0 0,15.12728 q -0.92444,-0.92444 -1.76485,-1.51272 -0.8404,-0.67233 -2.43717,-0.67233 l -7.0594,0 0,40.67558 q 0,2.43717 0.42021,4.03394 0.50424,1.51273 1.6808,2.18505 l -18.06869,0 z"
         style="font-style:normal;font-variant:normal;font-weight:normal;font-stretch:normal;font-size:84.04045105px;font-family:'SerifGothic LT Heavy';-inkscape-font-specification:'SerifGothic LT Heavy, ';letter-spacing:-1.02310121px;fill:#4d4d4d;fill-opacity:1"
         id="path4151" />
      <path
         d="m 291.72237,387.30246 q 0,2.43717 0.4202,4.03394 0.50424,1.51273 1.68081,2.18505 l -18.0687,0 q 1.17657,-0.67232 1.59677,-2.18505 0.50424,-1.59677 0.50424,-4.03394 l 0,-17.81658 -13.11031,0 0,17.81658 q 0,2.43717 0.4202,4.03394 0.50425,1.51273 1.68081,2.18505 l -18.06869,0 q 1.17656,-0.67232 1.59677,-2.18505 0.50424,-1.59677 0.50424,-4.03394 l 0,-47.39881 q 0,-2.43718 -0.50424,-3.94991 -0.42021,-1.59676 -1.59677,-2.26909 l 18.06869,0 q -1.17656,0.67233 -1.68081,2.26909 -0.4202,1.51273 -0.4202,3.94991 l 0,16.64001 13.11031,0 0,-16.64001 q 0,-2.43718 -0.50424,-3.94991 -0.4202,-1.59676 -1.59677,-2.26909 l 18.0687,0 q -1.17657,0.67233 -1.68081,2.26909 -0.4202,1.51273 -0.4202,3.94991 l 0,47.39881 z"
         style="font-style:normal;font-variant:normal;font-weight:normal;font-stretch:normal;font-size:84.04045105px;font-family:'SerifGothic LT Heavy';-inkscape-font-specification:'SerifGothic LT Heavy, ';letter-spacing:-1.02310121px;fill:#4d4d4d;fill-opacity:1"
         id="path4153" />
      <path
         d="m 301.06382,339.90365 q 0,-2.18506 -0.50424,-3.69778 -0.4202,-1.51273 -1.84889,-2.35314 l 0,-0.16808 36.5576,0 0,15.88365 q -2.52122,-2.94142 -6.30304,-2.94142 l -14.03475,0 0,10.50506 9.41253,0 q 1.76485,0 2.77333,-0.84041 1.00849,-0.92444 1.93293,-2.10101 l 0,18.82506 q -0.92444,-1.17656 -1.93293,-2.01697 -1.00848,-0.92444 -2.77333,-0.92444 l -9.41253,0 0,10.50505 14.28687,0 q 3.78182,0 6.30304,-2.94141 l 0,15.88364 -36.5576,0 q 1.17657,-0.67232 1.59677,-2.18505 0.50424,-1.59677 0.50424,-4.03394 l 0,-47.39881 z"
         style="font-style:normal;font-variant:normal;font-weight:normal;font-stretch:normal;font-size:84.04045105px;font-family:'SerifGothic LT Heavy';-inkscape-font-specification:'SerifGothic LT Heavy, ';letter-spacing:-1.02310121px;fill:#4d4d4d;fill-opacity:1"
         id="path4155" />
      <path
         d="m 372.14743,332.34001 q 6.38708,0 12.26991,2.35313 5.88283,2.35313 10.25294,6.55515 4.45414,4.11799 7.05939,9.91678 2.6893,5.71475 2.6893,12.43798 0,6.72324 -2.6893,12.52203 -2.60525,5.71475 -7.05939,9.91677 -4.37011,4.11799 -10.25294,6.47112 -5.88283,2.35313 -12.26991,2.35313 -6.47111,0 -12.35394,-2.35313 -5.79879,-2.35313 -10.25294,-6.47112 -4.3701,-4.20202 -7.05939,-9.91677 -2.60526,-5.79879 -2.60526,-12.52203 0,-6.72323 2.60526,-12.43798 2.68929,-5.79879 7.05939,-9.91678 4.45415,-4.20202 10.25294,-6.55515 5.88283,-2.35313 12.35394,-2.35313 z m 0,13.86667 q -4.20202,0 -7.56364,1.51273 -3.27757,1.42869 -5.54667,3.86586 -2.26909,2.43717 -3.52969,5.63071 -1.17657,3.1095 -1.17657,6.38707 0,3.27758 1.17657,6.47112 1.2606,3.10949 3.52969,5.54667 2.2691,2.43717 5.54667,3.9499 3.36162,1.42869 7.56364,1.42869 4.20203,0 7.47961,-1.42869 3.36161,-1.51273 5.63071,-3.9499 2.26909,-2.43718 3.44565,-5.54667 1.26061,-3.19354 1.26061,-6.47112 0,-3.27757 -1.26061,-6.38707 -1.17656,-3.19354 -3.44565,-5.63071 -2.2691,-2.43717 -5.63071,-3.86586 -3.27758,-1.51273 -7.47961,-1.51273 z"
         style="font-style:normal;font-variant:normal;font-weight:normal;font-stretch:normal;font-size:84.04045105px;font-family:'SerifGothic LT Heavy';-inkscape-font-specification:'SerifGothic LT Heavy, ';letter-spacing:-1.02310121px;fill:#4d4d4d;fill-opacity:1"
         id="path4157" />
      <path
         d="m 411.12626,332.34001 q 1.84889,1.59676 4.11798,1.59676 1.00849,0 2.43718,-0.25212 1.42868,-0.25212 3.02545,-0.50424 1.68081,-0.33616 3.36162,-0.58828 1.76485,-0.25212 3.27758,-0.25212 5.04243,0 8.82425,1.59676 3.86586,1.51273 6.47111,4.20203 2.68929,2.60525 4.03394,6.13495 1.34465,3.5297 1.34465,7.56364 0,2.18505 -0.33616,4.28606 -0.33616,2.10101 -1.17657,3.86586 -0.75636,1.68081 -2.10101,2.85738 -1.34465,1.09253 -3.44566,1.34465 l 0,0.16808 q 3.61374,0.75636 6.30304,3.19353 2.77333,2.43718 4.70626,5.7988 1.93293,3.36161 3.19354,7.14343 1.2606,3.78182 1.93293,7.31152 0.50424,2.77334 1.2606,3.86586 0.75637,1.00849 1.68081,1.84889 l -19.24526,0 q 0.67232,-0.92444 0.8404,-2.10101 0.25213,-1.2606 0.25213,-2.43717 0,-3.86586 -1.34465,-6.97536 -1.34465,-3.19354 -3.69778,-5.54667 -2.26909,-2.43717 -5.37859,-4.03394 -3.02546,-1.68081 -6.47111,-2.68929 l 0,17.56445 q 0,2.43717 0.4202,4.03394 0.50424,1.51273 1.68081,2.18505 l -18.0687,0 q 1.17657,-0.67232 1.59677,-2.18505 0.50424,-1.59677 0.50424,-4.03394 l 0,-54.96245 z m 13.86668,25.80041 q 0.50424,0.084 1.00848,0.084 0.50424,0 1.09253,0 2.77333,0 4.62222,-1.84889 1.84889,-1.93293 1.84889,-4.62222 0,-2.68929 -1.84889,-4.53818 -1.84889,-1.93294 -4.62222,-1.93294 -0.58829,0 -1.09253,0 -0.50424,0 -1.00848,0.084 l 0,12.77414 z"
         style="font-style:normal;font-variant:normal;font-weight:normal;font-stretch:normal;font-size:84.04045105px;font-family:'SerifGothic LT Heavy';-inkscape-font-specification:'SerifGothic LT Heavy, ';letter-spacing:-1.02310121px;fill:#4d4d4d;fill-opacity:1"
         id="path4159" />
      <path
         d="m 468.81724,393.52145 q 1.17656,-0.67232 1.59677,-2.18505 0.50424,-1.59677 0.50424,-4.03394 l 0,-20.92607 -13.11031,-21.01011 q -0.92445,-1.51273 -2.10101,-3.19354 -1.17657,-1.76485 -2.35314,-3.36162 -1.09252,-1.68081 -2.01697,-3.02546 -1.00848,-1.42868 -1.51272,-2.10101 l 20.75799,0 q -0.67233,0.58829 -1.09253,1.17657 -0.33616,0.58828 -0.33616,1.51273 0,0.67232 0.33616,1.51273 0.4202,0.75636 1.17657,2.18505 l 7.39556,13.36243 0.16808,0 7.0594,-13.61455 q 0.67232,-1.17657 0.92444,-1.93293 0.33616,-0.84041 0.33616,-1.51273 0,-0.92445 -0.4202,-1.51273 -0.33616,-0.58828 -1.00848,-1.17657 l 21.43031,0 q -1.68081,1.42869 -3.36162,3.9499 l -18.40486,28.74184 0,20.92607 q 0,2.43717 0.42021,4.03394 0.50424,1.51273 1.6808,2.18505 l -18.06869,0 z"
         style="font-style:normal;font-variant:normal;font-weight:normal;font-stretch:normal;font-size:84.04045105px;font-family:'SerifGothic LT Heavy';-inkscape-font-specification:'SerifGothic LT Heavy, ';letter-spacing:-1.02310121px;fill:#4d4d4d;fill-opacity:1"
         id="path4161" />
    </g>
    <g
       style="font-style:normal;font-weight:normal;font-size:29.23146248px;line-height:125%;font-family:sans-serif;letter-spacing:0px;word-spacing:0px;fill:#4d4d4d;fill-opacity:1;stroke:none;stroke-width:1px;stroke-linecap:butt;stroke-linejoin:miter;stroke-opacity:1"
       id="text3336-2">
      <path
         d="m 132.85195,460.1429 q -0.4875,0.4125 -1.0125,1.4625 -0.525,1.05 -1.0125,2.25 l -8.0625,20.85 q -0.15,0.375 -0.3,0.7125 -0.1125,0.3 -0.1125,0.525 0,0.4125 0.375,0.9 l -6.0375,0 -9.3,-24.2625 q -0.225,-0.6375 -0.6375,-1.3875 -0.45,-0.75 -0.75,-1.05 l 8.55,0 q -0.2625,0.3375 -0.4875,0.675 -0.225,0.3375 -0.225,0.8625 0,0.5625 0.225,1.1625 0.225,0.5625 0.4125,1.0875 l 4.7625,13.35 0.075,0 4.7625,-13.35 q 0.1875,-0.525 0.4125,-1.0875 0.225,-0.6 0.225,-1.1625 0,-0.525 -0.225,-0.8625 -0.225,-0.3375 -0.4875,-0.675 l 8.85,0 z"
         style="font-style:normal;font-variant:normal;font-weight:normal;font-stretch:normal;font-size:37.5px;font-family:'SerifGothic LT Heavy';-inkscape-font-specification:'SerifGothic LT Heavy, ';fill:#4d4d4d;fill-opacity:1"
         id="path4164" />
      <path
         d="m 141.33749,467.8679 q 2.325,0 4.2375,0.825 1.9125,0.825 3.2625,2.2125 1.35,1.35 2.0625,3.1125 0.75,1.7625 0.75,3.6375 0,1.875 -0.75,3.6375 -0.7125,1.7625 -2.0625,3.15 -1.35,1.35 -3.2625,2.175 -1.9125,0.825 -4.2375,0.825 -2.325,0 -4.2375,-0.825 -1.9125,-0.825 -3.2625,-2.175 -1.35,-1.3875 -2.1,-3.15 -0.7125,-1.7625 -0.7125,-3.6375 0,-1.875 0.7125,-3.6375 0.75,-1.7625 2.1,-3.1125 1.35,-1.3875 3.2625,-2.2125 1.9125,-0.825 4.2375,-0.825 z m 0,5.4375 q -1.05,0 -1.875,0.375 -0.825,0.375 -1.3875,1.0125 -0.5625,0.6 -0.8625,1.3875 -0.2625,0.7875 -0.2625,1.575 0,0.7875 0.2625,1.575 0.3,0.7875 0.8625,1.425 0.5625,0.6 1.3875,0.975 0.825,0.375 1.875,0.375 1.05,0 1.875,-0.375 0.825,-0.375 1.3875,-0.975 0.5625,-0.6375 0.825,-1.425 0.3,-0.7875 0.3,-1.575 0,-0.7875 -0.3,-1.575 -0.2625,-0.7875 -0.825,-1.3875 -0.5625,-0.6375 -1.3875,-1.0125 -0.825,-0.375 -1.875,-0.375 z"
         style="font-style:normal;font-variant:normal;font-weight:normal;font-stretch:normal;font-size:37.5px;font-family:'SerifGothic LT Heavy';-inkscape-font-specification:'SerifGothic LT Heavy, ';fill:#4d4d4d;fill-opacity:1"
         id="path4166" />
      <path
         d="m 160.8498,484.9679 q 0,0.9375 0.2625,1.275 0.2625,0.3 0.525,0.6 l -7.35,0 q 0.2625,-0.3 0.525,-0.6 0.2625,-0.3375 0.2625,-1.275 l 0,-22.95 q 0,-0.9375 -0.2625,-1.2375 -0.2625,-0.3375 -0.525,-0.6375 l 6.5625,0 0,24.825 z"
         style="font-style:normal;font-variant:normal;font-weight:normal;font-stretch:normal;font-size:37.5px;font-family:'SerifGothic LT Heavy';-inkscape-font-specification:'SerifGothic LT Heavy, ';fill:#4d4d4d;fill-opacity:1"
         id="path4168" />
      <path
         d="m 171.66269,468.4679 q -0.2625,0.3 -0.525,0.6375 -0.2625,0.3 -0.2625,1.2375 l 0,9.3375 q 0,1.0125 0.675,1.6875 0.7125,0.6375 2.0625,0.6375 0.5625,0 1.05,-0.1875 0.525,-0.1875 0.9,-0.45 0.4125,-0.2625 0.6375,-0.525 0.225,-0.3 0.225,-0.4875 l 0,-10.0125 q 0,-0.9375 -0.2625,-1.2375 -0.2625,-0.3375 -0.525,-0.6375 l 7.35,0 q -0.2625,0.3 -0.525,0.6375 -0.2625,0.3 -0.2625,1.2375 l 0,11.1375 q 0,0.9375 0.2625,1.275 0.2625,0.3 0.525,0.6 -0.7875,0 -1.8,0.6375 -1.0125,0.6375 -2.2125,1.3875 -1.425,0.9 -2.85,1.4625 -1.425,0.6 -3.45,0.6 -1.4625,0 -2.8125,-0.6 -1.35,-0.6375 -2.4375,-1.6875 -1.05,-1.05 -1.6875,-2.4375 -0.6375,-1.425 -0.6375,-3 l 0,-9.375 q 0,-0.9375 -0.2625,-1.2375 -0.2625,-0.3375 -0.525,-0.6375 l 7.35,0 z"
         style="font-style:normal;font-variant:normal;font-weight:normal;font-stretch:normal;font-size:37.5px;font-family:'SerifGothic LT Heavy';-inkscape-font-specification:'SerifGothic LT Heavy, ';fill:#4d4d4d;fill-opacity:1"
         id="path4170" />
      <path
         d="m 186.27421,473.8304 q 0,-0.9375 -0.2625,-1.2375 -0.2625,-0.3375 -0.525,-0.6375 0.6375,-0.1875 1.575,-0.8625 0.975,-0.675 2.025,-1.3125 0.75,-0.45 1.425,-0.7875 0.675,-0.375 1.3875,-0.6 0.75,-0.2625 1.575,-0.375 0.825,-0.15 1.9125,-0.15 1.7625,0 3,0.525 1.2375,0.4875 2.325,1.3875 1.425,-0.75 2.8875,-1.3125 1.5,-0.6 3.5625,-0.6 1.725,0 3.1875,0.5625 1.5,0.5625 2.55,1.6125 1.05,1.0125 1.65,2.4375 0.6,1.425 0.6,3.1125 l 0,9.375 q 0,0.9375 0.2625,1.275 0.2625,0.3 0.525,0.6 l -7.35,0 q 0.2625,-0.3 0.525,-0.6 0.2625,-0.3375 0.2625,-1.275 l 0,-9.3375 q 0,-1.0875 -0.75,-1.6875 -0.7125,-0.6375 -2.175,-0.6375 -1.35,0 -2.1,0.525 -0.75,0.525 -0.75,1.3875 l 0,9.75 q 0,0.9375 0.2625,1.275 0.2625,0.3 0.525,0.6 l -7.35,0 q 0.2625,-0.3 0.525,-0.6 0.2625,-0.3375 0.2625,-1.275 l 0,-9.3375 q 0,-1.0875 -0.75,-1.6875 -0.75,-0.6375 -2.325,-0.6375 -1.425,0 -2.0625,0.5625 -0.6375,0.525 -0.6375,1.0125 l 0,10.0875 q 0,0.9375 0.2625,1.275 0.2625,0.3 0.525,0.6 l -7.35,0 q 0.2625,-0.3 0.525,-0.6 0.2625,-0.3375 0.2625,-1.275 l 0,-11.1375 z"
         style="font-style:normal;font-variant:normal;font-weight:normal;font-stretch:normal;font-size:37.5px;font-family:'SerifGothic LT Heavy';-inkscape-font-specification:'SerifGothic LT Heavy, ';fill:#4d4d4d;fill-opacity:1"
         id="path4172" />
      <path
         d="m 224.58515,479.6804 q 0.9375,1.6125 2.325,2.2875 1.3875,0.675 3.1125,0.675 1.425,0 2.5875,-0.3375 1.1625,-0.375 2.0625,-0.9 l 0,6.0375 -0.075,0 q -0.45,-0.4875 -1.0125,-0.4875 -0.3375,0 -0.825,0.075 -0.4875,0.075 -1.0875,0.15 -0.6,0.075 -1.2375,0.15 -0.6375,0.1125 -1.3125,0.1125 -2.325,0 -4.2375,-0.75 -1.9125,-0.7875 -3.3375,-2.1 -1.3875,-1.3125 -2.175,-3.1125 -0.75,-1.8 -0.75,-3.825 0,-2.025 0.75,-3.825 0.7875,-1.8 2.175,-3.1125 1.425,-1.3125 3.3375,-2.0625 1.9125,-0.7875 4.2375,-0.7875 2.325,0 4.1625,0.9 1.875,0.8625 3.1875,2.325 1.3125,1.425 2.025,3.3375 0.7125,1.875 0.7125,3.9 0,0.525 0.1875,0.825 0.1875,0.2625 0.375,0.525 l -15.1875,0 z m 9.1125,-3.975 q -0.75,-1.425 -1.875,-2.2125 -1.0875,-0.825 -2.8125,-0.825 -1.725,0 -2.85,0.825 -1.0875,0.7875 -1.8375,2.2125 l 9.375,0 z"
         style="font-style:normal;font-variant:normal;font-weight:normal;font-stretch:normal;font-size:37.5px;font-family:'SerifGothic LT Heavy';-inkscape-font-specification:'SerifGothic LT Heavy, ';fill:#4d4d4d;fill-opacity:1"
         id="path4174" />
      <path
         d="m 256.12324,486.8429 q 0.525,-0.3 0.7125,-0.975 0.225,-0.7125 0.225,-1.8 l 0,-18.15 -3.15,0 q -0.7125,0 -1.0875,0.3 -0.375,0.2625 -0.7875,0.675 l 0,-6.75 16.2375,0 0,6.75 q -0.4125,-0.4125 -0.7875,-0.675 -0.375,-0.3 -1.0875,-0.3 l -3.15,0 0,18.15 q 0,1.0875 0.1875,1.8 0.225,0.675 0.75,0.975 l -8.0625,0 z"
         style="font-style:normal;font-variant:normal;font-weight:normal;font-stretch:normal;font-size:37.5px;font-family:'SerifGothic LT Heavy';-inkscape-font-specification:'SerifGothic LT Heavy, ';fill:#4d4d4d;fill-opacity:1"
         id="path4176" />
      <path
         d="m 280.97343,477.9554 -0.075,0 -2.0625,6.675 q -0.1125,0.4125 -0.225,0.75 -0.1125,0.3 -0.1125,0.6 0,0.4125 0.45,0.8625 l -5.5875,0 -6.0375,-15.0375 q -0.45,-1.125 -0.975,-2.025 -0.525,-0.9 -0.825,-1.3125 l 7.6875,0 q -0.225,0.225 -0.45,0.4875 -0.1875,0.225 -0.1875,0.525 0,0.4125 0.4125,1.725 l 2.6625,8.325 0.075,0 2.25,-8.55 q 0.1875,-0.6 0.2625,-0.9375 0.1125,-0.375 0.1125,-0.5625 0,-0.3 -0.225,-0.525 -0.1875,-0.2625 -0.4125,-0.4875 l 6.6,0 q -0.225,0.225 -0.45,0.4875 -0.1875,0.225 -0.1875,0.525 0,0.3 0.075,0.5625 0.075,0.225 0.1875,0.7125 l 2.2125,8.7375 0.075,0 2.925,-8.2875 q 0.1875,-0.45 0.2625,-0.825 0.075,-0.375 0.075,-0.9 0,-0.3 -0.225,-0.525 -0.1875,-0.2625 -0.4125,-0.4875 l 7.95,0 q -0.6375,0.5625 -1.0875,1.35 -0.45,0.7875 -0.7875,1.5375 l -5.925,13.275 q -0.2625,0.5625 -0.4125,0.8625 -0.1125,0.3 -0.1125,0.4875 0,0.4125 0.45,0.8625 l -5.475,0 -2.475,-8.8875 z"
         style="font-style:normal;font-variant:normal;font-weight:normal;font-stretch:normal;font-size:37.5px;font-family:'SerifGothic LT Heavy';-inkscape-font-specification:'SerifGothic LT Heavy, ';fill:#4d4d4d;fill-opacity:1"
         id="path4178" />
      <path
         d="m 307.01132,467.8679 q 2.325,0 4.2375,0.825 1.9125,0.825 3.2625,2.2125 1.35,1.35 2.0625,3.1125 0.75,1.7625 0.75,3.6375 0,1.875 -0.75,3.6375 -0.7125,1.7625 -2.0625,3.15 -1.35,1.35 -3.2625,2.175 -1.9125,0.825 -4.2375,0.825 -2.325,0 -4.2375,-0.825 -1.9125,-0.825 -3.2625,-2.175 -1.35,-1.3875 -2.1,-3.15 -0.7125,-1.7625 -0.7125,-3.6375 0,-1.875 0.7125,-3.6375 0.75,-1.7625 2.1,-3.1125 1.35,-1.3875 3.2625,-2.2125 1.9125,-0.825 4.2375,-0.825 z m 0,5.4375 q -1.05,0 -1.875,0.375 -0.825,0.375 -1.3875,1.0125 -0.5625,0.6 -0.8625,1.3875 -0.2625,0.7875 -0.2625,1.575 0,0.7875 0.2625,1.575 0.3,0.7875 0.8625,1.425 0.5625,0.6 1.3875,0.975 0.825,0.375 1.875,0.375 1.05,0 1.875,-0.375 0.825,-0.375 1.3875,-0.975 0.5625,-0.6375 0.825,-1.425 0.3,-0.7875 0.3,-1.575 0,-0.7875 -0.3,-1.575 -0.2625,-0.7875 -0.825,-1.3875 -0.5625,-0.6375 -1.3875,-1.0125 -0.825,-0.375 -1.875,-0.375 z"
         style="font-style:normal;font-variant:normal;font-weight:normal;font-stretch:normal;font-size:37.5px;font-family:'SerifGothic LT Heavy';-inkscape-font-specification:'SerifGothic LT Heavy, ';fill:#4d4d4d;fill-opacity:1"
         id="path4180" />
      <path
         d="m 317.52363,487.4429 8.025,-27.9 4.3875,0 -8.025,27.9 -4.3875,0 z"
         style="font-style:normal;font-variant:normal;font-weight:normal;font-stretch:normal;font-size:37.5px;font-family:'SerifGothic LT Heavy';-inkscape-font-specification:'SerifGothic LT Heavy, ';fill:#4d4d4d;fill-opacity:1"
         id="path4182" />
      <path
         d="m 333.17402,486.8429 q 0.525,-0.3 0.7125,-0.975 0.225,-0.7125 0.225,-1.8 l 0,-18.15 -3.15,0 q -0.7125,0 -1.0875,0.3 -0.375,0.2625 -0.7875,0.675 l 0,-6.75 16.2375,0 0,6.75 q -0.4125,-0.4125 -0.7875,-0.675 -0.375,-0.3 -1.0875,-0.3 l -3.15,0 0,18.15 q 0,1.0875 0.1875,1.8 0.225,0.675 0.75,0.975 l -8.0625,0 z"
         style="font-style:normal;font-variant:normal;font-weight:normal;font-stretch:normal;font-size:37.5px;font-family:'SerifGothic LT Heavy';-inkscape-font-specification:'SerifGothic LT Heavy, ';fill:#4d4d4d;fill-opacity:1"
         id="path4184" />
      <path
         d="m 353.13749,468.5429 q 0.75,-0.3 1.575,-0.4875 0.825,-0.1875 1.7625,-0.1875 1.725,0 3.1875,0.5625 1.5,0.5625 2.55,1.6125 1.05,1.0125 1.65,2.4375 0.6,1.425 0.6,3.1125 l 0,9.375 q 0,0.9375 0.2625,1.275 0.2625,0.3 0.525,0.6 l -7.35,0 q 0.2625,-0.3 0.525,-0.6 0.2625,-0.3375 0.2625,-1.275 l 0,-9.225 q 0,-1.05 -0.75,-1.8375 -0.7125,-0.825 -2.4,-0.825 -0.9375,0 -1.6875,0.4875 -0.7125,0.4875 -0.7125,1.3875 l 0,10.0125 q 0,0.9375 0.2625,1.275 0.2625,0.3 0.525,0.6 l -7.35,0 q 0.2625,-0.3 0.525,-0.6 0.2625,-0.3375 0.2625,-1.275 l 0,-22.95 q 0,-0.9375 -0.2625,-1.2375 -0.2625,-0.3375 -0.525,-0.6375 l 6.5625,0 0,8.4 z"
         style="font-style:normal;font-variant:normal;font-weight:normal;font-stretch:normal;font-size:37.5px;font-family:'SerifGothic LT Heavy';-inkscape-font-specification:'SerifGothic LT Heavy, ';fill:#4d4d4d;fill-opacity:1"
         id="path4186" />
      <path
         d="m 367.78652,486.8429 q 0.2625,-0.3 0.525,-0.6 0.2625,-0.3375 0.2625,-1.275 l 0,-14.625 q 0,-0.9375 -0.2625,-1.2375 -0.2625,-0.3375 -0.525,-0.6375 l 5.4375,0 0,1.8375 0.075,0 q 0.6,-1.0875 1.6125,-1.6125 1.05,-0.525 2.625,-0.825 0.5625,-0.1125 0.8625,-0.3 0.3375,-0.225 0.6,-0.525 l 0,7.5 q -0.4125,-0.3 -0.975,-0.4875 -0.5625,-0.1875 -1.05,-0.1875 -1.725,0 -2.625,1.35 l 0,9.75 q 0,0.9375 0.2625,1.275 0.2625,0.3 0.525,0.6 l -7.35,0 z"
         style="font-style:normal;font-variant:normal;font-weight:normal;font-stretch:normal;font-size:37.5px;font-family:'SerifGothic LT Heavy';-inkscape-font-specification:'SerifGothic LT Heavy, ';fill:#4d4d4d;fill-opacity:1"
         id="path4188" />
      <path
         d="m 386.01093,479.6804 q 0.9375,1.6125 2.325,2.2875 1.3875,0.675 3.1125,0.675 1.425,0 2.5875,-0.3375 1.1625,-0.375 2.0625,-0.9 l 0,6.0375 -0.075,0 q -0.45,-0.4875 -1.0125,-0.4875 -0.3375,0 -0.825,0.075 -0.4875,0.075 -1.0875,0.15 -0.6,0.075 -1.2375,0.15 -0.6375,0.1125 -1.3125,0.1125 -2.325,0 -4.2375,-0.75 -1.9125,-0.7875 -3.3375,-2.1 -1.3875,-1.3125 -2.175,-3.1125 -0.75,-1.8 -0.75,-3.825 0,-2.025 0.75,-3.825 0.7875,-1.8 2.175,-3.1125 1.425,-1.3125 3.3375,-2.0625 1.9125,-0.7875 4.2375,-0.7875 2.325,0 4.1625,0.9 1.875,0.8625 3.1875,2.325 1.3125,1.425 2.025,3.3375 0.7125,1.875 0.7125,3.9 0,0.525 0.1875,0.825 0.1875,0.2625 0.375,0.525 l -15.1875,0 z m 9.1125,-3.975 q -0.75,-1.425 -1.875,-2.2125 -1.0875,-0.825 -2.8125,-0.825 -1.725,0 -2.85,0.825 -1.0875,0.7875 -1.8375,2.2125 l 9.375,0 z"
         style="font-style:normal;font-variant:normal;font-weight:normal;font-stretch:normal;font-size:37.5px;font-family:'SerifGothic LT Heavy';-inkscape-font-specification:'SerifGothic LT Heavy, ';fill:#4d4d4d;fill-opacity:1"
         id="path4190" />
      <path
         d="m 408.93574,479.6804 q 0.9375,1.6125 2.325,2.2875 1.3875,0.675 3.1125,0.675 1.425,0 2.5875,-0.3375 1.1625,-0.375 2.0625,-0.9 l 0,6.0375 -0.075,0 q -0.45,-0.4875 -1.0125,-0.4875 -0.3375,0 -0.825,0.075 -0.4875,0.075 -1.0875,0.15 -0.6,0.075 -1.2375,0.15 -0.6375,0.1125 -1.3125,0.1125 -2.325,0 -4.2375,-0.75 -1.9125,-0.7875 -3.3375,-2.1 -1.3875,-1.3125 -2.175,-3.1125 -0.75,-1.8 -0.75,-3.825 0,-2.025 0.75,-3.825 0.7875,-1.8 2.175,-3.1125 1.425,-1.3125 3.3375,-2.0625 1.9125,-0.7875 4.2375,-0.7875 2.325,0 4.1625,0.9 1.875,0.8625 3.1875,2.325 1.3125,1.425 2.025,3.3375 0.7125,1.875 0.7125,3.9 0,0.525 0.1875,0.825 0.1875,0.2625 0.375,0.525 l -15.1875,0 z m 9.1125,-3.975 q -0.75,-1.425 -1.875,-2.2125 -1.0875,-0.825 -2.8125,-0.825 -1.725,0 -2.85,0.825 -1.0875,0.7875 -1.8375,2.2125 l 9.375,0 z"
         style="font-style:normal;font-variant:normal;font-weight:normal;font-stretch:normal;font-size:37.5px;font-family:'SerifGothic LT Heavy';-inkscape-font-specification:'SerifGothic LT Heavy, ';fill:#4d4d4d;fill-opacity:1"
         id="path4192" />
      <path
         d="m 430.47304,475.7054 q -1.575,0 -2.55,-1.0125 -0.975,-1.0125 -0.975,-2.475 0,-1.4625 0.975,-2.475 0.975,-1.0125 2.55,-1.0125 1.575,0 2.55,1.0125 0.975,1.0125 0.975,2.475 0,1.4625 -0.975,2.475 -0.975,1.0125 -2.55,1.0125 z m 0,11.55 q -1.575,0 -2.55,-1.0125 -0.975,-1.0125 -0.975,-2.475 0,-1.4625 0.975,-2.475 0.975,-1.0125 2.55,-1.0125 1.575,0 2.55,1.0125 0.975,1.0125 0.975,2.475 0,1.4625 -0.975,2.475 -0.975,1.0125 -2.55,1.0125 z"
         style="font-style:normal;font-variant:normal;font-weight:normal;font-stretch:normal;font-size:37.5px;font-family:'SerifGothic LT Heavy';-inkscape-font-specification:'SerifGothic LT Heavy, ';fill:#4d4d4d;fill-opacity:1"
         id="path4194" />
    </g>
    <g
       style="font-style:normal;font-weight:normal;font-size:29.23146248px;line-height:125%;font-family:sans-serif;letter-spacing:0px;word-spacing:0px;fill:#4d4d4d;fill-opacity:1;stroke:none;stroke-width:1px;stroke-linecap:butt;stroke-linejoin:miter;stroke-opacity:1"
       id="text3336-2-5">
      <path
         d="m 42.750584,505.29821 q 0.825,0.7125 1.8375,0.7125 0.45,0 1.0875,-0.1125 0.6375,-0.1125 1.35,-0.225 0.75,-0.15 1.5,-0.2625 0.7875,-0.1125 1.4625,-0.1125 2.25,0 3.9375,0.7125 1.725,0.675 2.8875,1.875 1.2,1.1625 1.8,2.7375 0.6,1.575 0.6,3.375 0,0.975 -0.15,1.9125 -0.15,0.9375 -0.525,1.725 -0.3375,0.75 -0.9375,1.275 -0.6,0.4875 -1.5375,0.6 l 0,0.075 q 1.6125,0.3375 2.8125,1.425 1.2375,1.0875 2.1,2.5875 0.8625,1.5 1.425,3.1875 0.5625,1.6875 0.8625,3.2625 0.225,1.2375 0.5625,1.725 0.3375,0.45 0.75,0.825 l -8.5875,0 q 0.3,-0.4125 0.375,-0.9375 0.1125,-0.5625 0.1125,-1.0875 0,-1.725 -0.6,-3.1125 -0.6,-1.425 -1.65,-2.475 -1.0125,-1.0875 -2.4,-1.8 -1.35,-0.75 -2.8875,-1.2 l 0,7.8375 q 0,1.0875 0.1875,1.8 0.225,0.675 0.75,0.975 l -8.0625,0 q 0.525,-0.3 0.7125,-0.975 0.225,-0.7125 0.225,-1.8 l 0,-24.525 z m 6.1875,11.5125 q 0.225,0.0375 0.45,0.0375 0.225,0 0.4875,0 1.2375,0 2.0625,-0.825 0.825,-0.8625 0.825,-2.0625 0,-1.2 -0.825,-2.025 -0.825,-0.8625 -2.0625,-0.8625 -0.2625,0 -0.4875,0 -0.225,0 -0.45,0.0375 l 0,5.7 z"
         style="font-style:normal;font-variant:normal;font-weight:normal;font-stretch:normal;font-size:37.5px;font-family:'SerifGothic LT Heavy';-inkscape-font-specification:'SerifGothic LT Heavy, ';fill:#4d4d4d;fill-opacity:1"
         id="path4197" />
      <path
         d="m 65.675389,508.67321 q 0,-0.975 -0.225,-1.65 -0.1875,-0.675 -0.825,-1.05 l 0,-0.075 16.3125,0 0,7.0875 q -1.125,-1.3125 -2.8125,-1.3125 l -6.2625,0 0,4.6875 4.2,0 q 0.7875,0 1.2375,-0.375 0.45,-0.4125 0.8625,-0.9375 l 0,8.4 q -0.4125,-0.525 -0.8625,-0.9 -0.45,-0.4125 -1.2375,-0.4125 l -4.2,0 0,4.6875 6.375,0 q 1.6875,0 2.8125,-1.3125 l 0,7.0875 -16.3125,0 q 0.525,-0.3 0.7125,-0.975 0.225,-0.7125 0.225,-1.8 l 0,-21.15 z"
         style="font-style:normal;font-variant:normal;font-weight:normal;font-stretch:normal;font-size:37.5px;font-family:'SerifGothic LT Heavy';-inkscape-font-specification:'SerifGothic LT Heavy, ';fill:#4d4d4d;fill-opacity:1"
         id="path4199" />
      <path
         d="m 108.20039,505.89821 q -0.4875,0.4125 -1.0125,1.4625 -0.525,1.05 -1.0125,2.25 l -8.062501,20.85 q -0.15,0.375 -0.3,0.7125 -0.1125,0.3 -0.1125,0.525 0,0.4125 0.375,0.9 l -6.0375,0 -9.3,-24.2625 q -0.225,-0.6375 -0.6375,-1.3875 -0.45,-0.75 -0.75,-1.05 l 8.55,0 q -0.2625,0.3375 -0.4875,0.675 -0.225,0.3375 -0.225,0.8625 0,0.5625 0.225,1.1625 0.225,0.5625 0.4125,1.0875 l 4.7625,13.35 0.075,0 4.7625,-13.35 q 0.1875,-0.525 0.4125,-1.0875 0.225001,-0.6 0.225001,-1.1625 0,-0.525 -0.225001,-0.8625 -0.225,-0.3375 -0.4875,-0.675 l 8.850001,0 z"
         style="font-style:normal;font-variant:normal;font-weight:normal;font-stretch:normal;font-size:37.5px;font-family:'SerifGothic LT Heavy';-inkscape-font-specification:'SerifGothic LT Heavy, ';fill:#4d4d4d;fill-opacity:1"
         id="path4201" />
      <path
         d="m 122.89922,505.29821 q 2.85,0 5.475,1.05 2.625,1.05 4.575,2.925 1.9875,1.8375 3.15,4.425 1.2,2.55 1.2,5.55 0,3 -1.2,5.5875 -1.1625,2.55 -3.15,4.425 -1.95,1.8375 -4.575,2.8875 -2.625,1.05 -5.475,1.05 -2.8875,0 -5.5125,-1.05 -2.5875,-1.05 -4.575,-2.8875 -1.95,-1.875 -3.15,-4.425 -1.1625,-2.5875 -1.1625,-5.5875 0,-3 1.1625,-5.55 1.2,-2.5875 3.15,-4.425 1.9875,-1.875 4.575,-2.925 2.625,-1.05 5.5125,-1.05 z m 0,6.1875 q -1.875,0 -3.375,0.675 -1.4625,0.6375 -2.475,1.725 -1.0125,1.0875 -1.575,2.5125 -0.525,1.3875 -0.525,2.85 0,1.4625 0.525,2.8875 0.5625,1.3875 1.575,2.475 1.0125,1.0875 2.475,1.7625 1.5,0.6375 3.375,0.6375 1.875,0 3.3375,-0.6375 1.5,-0.675 2.5125,-1.7625 1.0125,-1.0875 1.5375,-2.475 0.5625,-1.425 0.5625,-2.8875 0,-1.4625 -0.5625,-2.85 -0.525,-1.425 -1.5375,-2.5125 -1.0125,-1.0875 -2.5125,-1.725 -1.4625,-0.675 -3.3375,-0.675 z"
         style="font-style:normal;font-variant:normal;font-weight:normal;font-stretch:normal;font-size:37.5px;font-family:'SerifGothic LT Heavy';-inkscape-font-specification:'SerifGothic LT Heavy, ';fill:#4d4d4d;fill-opacity:1"
         id="path4203" />
      <path
         d="m 139.99863,532.59821 q 0.525,-0.3 0.7125,-0.975 0.225,-0.7125 0.225,-1.8 l 0,-21.15 q 0,-1.0875 -0.225,-1.7625 -0.1875,-0.7125 -0.7125,-1.0125 l 8.0625,0 q -0.525,0.3 -0.75,1.0125 -0.1875,0.675 -0.1875,1.7625 l 0,18.15 5.2875,0 q 1.6875,0 2.8125,-1.3125 l 0,7.0875 -15.225,0 z"
         style="font-style:normal;font-variant:normal;font-weight:normal;font-stretch:normal;font-size:37.5px;font-family:'SerifGothic LT Heavy';-inkscape-font-specification:'SerifGothic LT Heavy, ';fill:#4d4d4d;fill-opacity:1"
         id="path4205" />
      <path
         d="m 177.02461,505.89821 q -0.525,0.3 -0.75,1.0125 -0.1875,0.675 -0.1875,1.7625 l 0,15.6 q 0,2.25 -0.75,3.9375 -0.7125,1.65 -1.9875,2.775 -1.275,1.125 -2.9625,1.65 -1.6875,0.5625 -3.6,0.5625 -1.9125,0 -3.6,-0.5625 -1.6875,-0.525 -2.9625,-1.65 -1.275,-1.125 -2.025,-2.775 -0.7125,-1.6875 -0.7125,-3.9375 l 0,-15.6 q 0,-1.0875 -0.225,-1.7625 -0.1875,-0.7125 -0.7125,-1.0125 l 8.0625,0 q -0.525,0.3 -0.75,1.0125 -0.1875,0.675 -0.1875,1.7625 l 0,15.0375 q 0,1.5375 0.9375,2.4375 0.9375,0.8625 2.175,0.8625 1.2375,0 2.175,-0.8625 0.9375,-0.9 0.9375,-2.4375 l 0,-15.0375 q 0,-1.0875 -0.225,-1.7625 -0.1875,-0.7125 -0.7125,-1.0125 l 8.0625,0 z"
         style="font-style:normal;font-variant:normal;font-weight:normal;font-stretch:normal;font-size:37.5px;font-family:'SerifGothic LT Heavy';-inkscape-font-specification:'SerifGothic LT Heavy, ';fill:#4d4d4d;fill-opacity:1"
         id="path4207" />
      <path
         d="m 182.39941,532.59821 q 0.525,-0.3 0.7125,-0.975 0.225,-0.7125 0.225,-1.8 l 0,-18.15 -3.15,0 q -0.7125,0 -1.0875,0.3 -0.375,0.2625 -0.7875,0.675 l 0,-6.75 16.2375,0 0,6.75 q -0.4125,-0.4125 -0.7875,-0.675 -0.375,-0.3 -1.0875,-0.3 l -3.15,0 0,18.15 q 0,1.0875 0.1875,1.8 0.225,0.675 0.75,0.975 l -8.0625,0 z"
         style="font-style:normal;font-variant:normal;font-weight:normal;font-stretch:normal;font-size:37.5px;font-family:'SerifGothic LT Heavy';-inkscape-font-specification:'SerifGothic LT Heavy, ';fill:#4d4d4d;fill-opacity:1"
         id="path4209" />
      <path
         d="m 196.77539,508.67321 q 0,-1.0875 -0.225,-1.7625 -0.1875,-0.7125 -0.7125,-1.0125 l 8.0625,0 q -0.525,0.3 -0.75,1.0125 -0.1875,0.675 -0.1875,1.7625 l 0,21.15 q 0,1.0875 0.1875,1.8 0.225,0.675 0.75,0.975 l -8.0625,0 q 0.525,-0.3 0.7125,-0.975 0.225,-0.7125 0.225,-1.8 l 0,-21.15 z"
         style="font-style:normal;font-variant:normal;font-weight:normal;font-stretch:normal;font-size:37.5px;font-family:'SerifGothic LT Heavy';-inkscape-font-specification:'SerifGothic LT Heavy, ';fill:#4d4d4d;fill-opacity:1"
         id="path4211" />
      <path
         d="m 220.75078,505.29821 q 2.85,0 5.475,1.05 2.625,1.05 4.575,2.925 1.9875,1.8375 3.15,4.425 1.2,2.55 1.2,5.55 0,3 -1.2,5.5875 -1.1625,2.55 -3.15,4.425 -1.95,1.8375 -4.575,2.8875 -2.625,1.05 -5.475,1.05 -2.8875,0 -5.5125,-1.05 -2.5875,-1.05 -4.575,-2.8875 -1.95,-1.875 -3.15,-4.425 -1.1625,-2.5875 -1.1625,-5.5875 0,-3 1.1625,-5.55 1.2,-2.5875 3.15,-4.425 1.9875,-1.875 4.575,-2.925 2.625,-1.05 5.5125,-1.05 z m 0,6.1875 q -1.875,0 -3.375,0.675 -1.4625,0.6375 -2.475,1.725 -1.0125,1.0875 -1.575,2.5125 -0.525,1.3875 -0.525,2.85 0,1.4625 0.525,2.8875 0.5625,1.3875 1.575,2.475 1.0125,1.0875 2.475,1.7625 1.5,0.6375 3.375,0.6375 1.875,0 3.3375,-0.6375 1.5,-0.675 2.5125,-1.7625 1.0125,-1.0875 1.5375,-2.475 0.5625,-1.425 0.5625,-2.8875 0,-1.4625 -0.5625,-2.85 -0.525,-1.425 -1.5375,-2.5125 -1.0125,-1.0875 -2.5125,-1.725 -1.4625,-0.675 -3.3375,-0.675 z"
         style="font-style:normal;font-variant:normal;font-weight:normal;font-stretch:normal;font-size:37.5px;font-family:'SerifGothic LT Heavy';-inkscape-font-specification:'SerifGothic LT Heavy, ';fill:#4d4d4d;fill-opacity:1"
         id="path4213" />
      <path
         d="m 238.90019,508.67321 q 0,-1.0875 -0.225,-1.7625 -0.1875,-0.7125 -0.7125,-1.0125 l 7.0875,0 q 2.25,3.975 4.275,7.8 2.025,3.7875 3.375,7.125 l 0.075,0 0,-12.15 q 0,-1.0875 -0.225,-1.7625 -0.1875,-0.7125 -0.7125,-1.0125 l 8.0625,0 q -0.525,0.3 -0.75,1.0125 -0.1875,0.675 -0.1875,1.7625 l 0,21.15 q 0,1.0875 0.1875,1.8 0.225,0.675 0.75,0.975 l -7.0875,0 q -1.0125,-2.1 -2.1375,-4.0875 -1.125,-2.025 -2.175,-3.8625 -1.05,-1.8375 -1.9125,-3.4875 -0.8625,-1.65 -1.425,-3.0375 l -0.075,0 0,11.7 q 0,1.0875 0.1875,1.8 0.225,0.675 0.75,0.975 l -8.0625,0 q 0.525,-0.3 0.7125,-0.975 0.225,-0.7125 0.225,-1.8 l 0,-21.15 z"
         style="font-style:normal;font-variant:normal;font-weight:normal;font-stretch:normal;font-size:37.5px;font-family:'SerifGothic LT Heavy';-inkscape-font-specification:'SerifGothic LT Heavy, ';fill:#4d4d4d;fill-opacity:1"
         id="path4215" />
      <path
         d="m 269.38652,528.36071 -0.6375,1.65 q -0.15,0.375 -0.225,0.6375 -0.0375,0.2625 -0.0375,0.6 0,0.45 0.15,0.75 0.15,0.3 0.45,0.6 l -8.5875,0 q 0.3,-0.1875 0.525,-0.525 0.225,-0.3375 0.3375,-0.6375 l 8.8125,-22.05 q 0.3,-0.7875 0.4875,-1.3125 0.1875,-0.525 0.1875,-0.825 0,-0.45 -0.15,-0.75 -0.15,-0.3 -0.45,-0.6 l 6.4125,0 9.5625,24.7875 q 0.225,0.6 0.5625,1.0875 0.3375,0.4875 0.6375,0.825 l -8.5125,0 q 0.3,-0.3 0.45,-0.6 0.15,-0.3 0.15,-0.75 0,-0.3375 -0.075,-0.6 -0.0375,-0.2625 -0.1875,-0.6375 l -0.6375,-1.65 -9.225,0 z m 7.4625,-5.4 -2.7375,-8.85 -0.075,0 -2.7375,8.85 5.55,0 z"
         style="font-style:normal;font-variant:normal;font-weight:normal;font-stretch:normal;font-size:37.5px;font-family:'SerifGothic LT Heavy';-inkscape-font-specification:'SerifGothic LT Heavy, ';fill:#4d4d4d;fill-opacity:1"
         id="path4217" />
      <path
         d="m 288.69785,505.29821 q 0.825,0.7125 1.8375,0.7125 0.45,0 1.0875,-0.1125 0.6375,-0.1125 1.35,-0.225 0.75,-0.15 1.5,-0.2625 0.7875,-0.1125 1.4625,-0.1125 2.25,0 3.9375,0.7125 1.725,0.675 2.8875,1.875 1.2,1.1625 1.8,2.7375 0.6,1.575 0.6,3.375 0,0.975 -0.15,1.9125 -0.15,0.9375 -0.525,1.725 -0.3375,0.75 -0.9375,1.275 -0.6,0.4875 -1.5375,0.6 l 0,0.075 q 1.6125,0.3375 2.8125,1.425 1.2375,1.0875 2.1,2.5875 0.8625,1.5 1.425,3.1875 0.5625,1.6875 0.8625,3.2625 0.225,1.2375 0.5625,1.725 0.3375,0.45 0.75,0.825 l -8.5875,0 q 0.3,-0.4125 0.375,-0.9375 0.1125,-0.5625 0.1125,-1.0875 0,-1.725 -0.6,-3.1125 -0.6,-1.425 -1.65,-2.475 -1.0125,-1.0875 -2.4,-1.8 -1.35,-0.75 -2.8875,-1.2 l 0,7.8375 q 0,1.0875 0.1875,1.8 0.225,0.675 0.75,0.975 l -8.0625,0 q 0.525,-0.3 0.7125,-0.975 0.225,-0.7125 0.225,-1.8 l 0,-24.525 z m 6.1875,11.5125 q 0.225,0.0375 0.45,0.0375 0.225,0 0.4875,0 1.2375,0 2.0625,-0.825 0.825,-0.8625 0.825,-2.0625 0,-1.2 -0.825,-2.025 -0.825,-0.8625 -2.0625,-0.8625 -0.2625,0 -0.4875,0 -0.225,0 -0.45,0.0375 l 0,5.7 z"
         style="font-style:normal;font-variant:normal;font-weight:normal;font-stretch:normal;font-size:37.5px;font-family:'SerifGothic LT Heavy';-inkscape-font-specification:'SerifGothic LT Heavy, ';fill:#4d4d4d;fill-opacity:1"
         id="path4219" />
      <path
         d="m 314.89687,532.59821 q 0.525,-0.3 0.7125,-0.975 0.225,-0.7125 0.225,-1.8 l 0,-9.3375 -5.85,-9.375 q -0.4125,-0.675 -0.9375,-1.425 -0.525,-0.7875 -1.05,-1.5 -0.4875,-0.75 -0.9,-1.35 -0.45,-0.6375 -0.675,-0.9375 l 9.2625,0 q -0.3,0.2625 -0.4875,0.525 -0.15,0.2625 -0.15,0.675 0,0.3 0.15,0.675 0.1875,0.3375 0.525,0.975 l 3.3,5.9625 0.075,0 3.15,-6.075 q 0.3,-0.525 0.4125,-0.8625 0.15,-0.375 0.15,-0.675 0,-0.4125 -0.1875,-0.675 -0.15,-0.2625 -0.45,-0.525 l 9.5625,0 q -0.75,0.6375 -1.5,1.7625 l -8.2125,12.825 0,9.3375 q 0,1.0875 0.1875,1.8 0.225,0.675 0.75,0.975 l -8.0625,0 z"
         style="font-style:normal;font-variant:normal;font-weight:normal;font-stretch:normal;font-size:37.5px;font-family:'SerifGothic LT Heavy';-inkscape-font-specification:'SerifGothic LT Heavy, ';fill:#4d4d4d;fill-opacity:1"
         id="path4221" />
      <path
         d="m 357.98496,512.98571 q -0.4125,-0.525 -0.8625,-0.9 -0.45,-0.4125 -1.2375,-0.4125 l -5.775,0 0,4.6875 4.2,0 q 0.7875,0 1.2375,-0.375 0.45,-0.4125 0.8625,-0.9375 l 0,8.4 q -0.4125,-0.525 -0.8625,-0.9 -0.45,-0.4125 -1.2375,-0.4125 l -4.2,0 0,7.6875 q 0,1.0875 0.1875,1.8 0.225,0.675 0.75,0.975 l -8.0625,0 q 0.525,-0.3 0.7125,-0.975 0.225,-0.7125 0.225,-1.8 l 0,-22.95 q 0,-0.525 -0.2625,-0.975 l 14.325,0 0,7.0875 z"
         style="font-style:normal;font-variant:normal;font-weight:normal;font-stretch:normal;font-size:37.5px;font-family:'SerifGothic LT Heavy';-inkscape-font-specification:'SerifGothic LT Heavy, ';fill:#4d4d4d;fill-opacity:1"
         id="path4223" />
      <path
         d="m 360.54844,508.67321 q 0,-0.975 -0.225,-1.65 -0.1875,-0.675 -0.825,-1.05 l 0,-0.075 16.3125,0 0,7.0875 q -1.125,-1.3125 -2.8125,-1.3125 l -6.2625,0 0,4.6875 4.2,0 q 0.7875,0 1.2375,-0.375 0.45,-0.4125 0.8625,-0.9375 l 0,8.4 q -0.4125,-0.525 -0.8625,-0.9 -0.45,-0.4125 -1.2375,-0.4125 l -4.2,0 0,4.6875 6.375,0 q 1.6875,0 2.8125,-1.3125 l 0,7.0875 -16.3125,0 q 0.525,-0.3 0.7125,-0.975 0.225,-0.7125 0.225,-1.8 l 0,-21.15 z"
         style="font-style:normal;font-variant:normal;font-weight:normal;font-stretch:normal;font-size:37.5px;font-family:'SerifGothic LT Heavy';-inkscape-font-specification:'SerifGothic LT Heavy, ';fill:#4d4d4d;fill-opacity:1"
         id="path4225" />
      <path
         d="m 391.71094,518.61071 0.075,0 4.5375,-12.7125 6.1875,0 q -0.1875,0.3 -0.3375,0.7125 -0.15,0.375 -0.15,0.825 0,0.45 0.0375,0.975 0.075,0.525 0.15,1.125 l 3.0375,19.6875 q 0.1875,1.0125 0.525,1.95 0.375,0.9 0.7875,1.425 l -8.1,0 q 0.225,-0.2625 0.45,-0.6 0.2625,-0.3375 0.2625,-0.8625 0,-0.3375 0,-0.7125 0,-0.4125 -0.075,-0.9375 l -1.35,-12.75 -0.075,0 -5.8875,16.4625 -0.3,0 -6,-16.4625 -0.075,0 -1.1625,12.975 q -0.075,0.525 -0.075,0.9 0,0.3375 0,0.525 0,0.525 0.225,0.8625 0.2625,0.3375 0.4875,0.6 l -8.0625,0 q 0.4125,-0.525 0.75,-1.425 0.3375,-0.9375 0.525,-1.95 l 3.075,-19.6875 q 0.075,-0.6 0.1125,-1.125 0.075,-0.525 0.075,-0.975 0,-0.45 -0.15,-0.825 -0.15,-0.4125 -0.3375,-0.7125 l 6.375,0 4.4625,12.7125 z"
         style="font-style:normal;font-variant:normal;font-weight:normal;font-stretch:normal;font-size:37.5px;font-family:'SerifGothic LT Heavy';-inkscape-font-specification:'SerifGothic LT Heavy, ';fill:#4d4d4d;fill-opacity:1"
         id="path4227" />
      <path
         d="m 408.29883,508.67321 q 0,-1.0875 -0.225,-1.7625 -0.1875,-0.7125 -0.7125,-1.0125 l 8.0625,0 q -0.525,0.3 -0.75,1.0125 -0.1875,0.675 -0.1875,1.7625 l 0,21.15 q 0,1.0875 0.1875,1.8 0.225,0.675 0.75,0.975 l -8.0625,0 q 0.525,-0.3 0.7125,-0.975 0.225,-0.7125 0.225,-1.8 l 0,-21.15 z"
         style="font-style:normal;font-variant:normal;font-weight:normal;font-stretch:normal;font-size:37.5px;font-family:'SerifGothic LT Heavy';-inkscape-font-specification:'SerifGothic LT Heavy, ';fill:#4d4d4d;fill-opacity:1"
         id="path4229" />
      <path
         d="m 419.14922,508.67321 q 0,-1.0875 -0.225,-1.7625 -0.1875,-0.7125 -0.7125,-1.0125 l 7.0875,0 q 2.25,3.975 4.275,7.8 2.025,3.7875 3.375,7.125 l 0.075,0 0,-12.15 q 0,-1.0875 -0.225,-1.7625 -0.1875,-0.7125 -0.7125,-1.0125 l 8.0625,0 q -0.525,0.3 -0.75,1.0125 -0.1875,0.675 -0.1875,1.7625 l 0,21.15 q 0,1.0875 0.1875,1.8 0.225,0.675 0.75,0.975 l -7.0875,0 q -1.0125,-2.1 -2.1375,-4.0875 -1.125,-2.025 -2.175,-3.8625 -1.05,-1.8375 -1.9125,-3.4875 -0.8625,-1.65 -1.425,-3.0375 l -0.075,0 0,11.7 q 0,1.0875 0.1875,1.8 0.225,0.675 0.75,0.975 l -8.0625,0 q 0.525,-0.3 0.7125,-0.975 0.225,-0.7125 0.225,-1.8 l 0,-21.15 z"
         style="font-style:normal;font-variant:normal;font-weight:normal;font-stretch:normal;font-size:37.5px;font-family:'SerifGothic LT Heavy';-inkscape-font-specification:'SerifGothic LT Heavy, ';fill:#4d4d4d;fill-opacity:1"
         id="path4231" />
      <path
         d="m 443.74805,508.67321 q 0,-1.0875 -0.225,-1.7625 -0.1875,-0.7125 -0.7125,-1.0125 l 8.0625,0 q -0.525,0.3 -0.75,1.0125 -0.1875,0.675 -0.1875,1.7625 l 0,21.15 q 0,1.0875 0.1875,1.8 0.225,0.675 0.75,0.975 l -8.0625,0 q 0.525,-0.3 0.7125,-0.975 0.225,-0.7125 0.225,-1.8 l 0,-21.15 z"
         style="font-style:normal;font-variant:normal;font-weight:normal;font-stretch:normal;font-size:37.5px;font-family:'SerifGothic LT Heavy';-inkscape-font-specification:'SerifGothic LT Heavy, ';fill:#4d4d4d;fill-opacity:1"
         id="path4233" />
      <path
         d="m 465.24844,512.98571 q -0.75,-0.6 -1.6875,-1.2375 -0.9375,-0.675 -2.2875,-0.675 -1.125,0 -1.4625,0.45 -0.3375,0.4125 -0.3375,0.9375 0,0.75 0.6375,1.3875 0.6375,0.6 1.6125,1.275 0.975,0.675 2.1,1.5 1.125,0.7875 2.1,1.875 0.975,1.0875 1.6125,2.55 0.6375,1.4625 0.6375,3.4875 0,1.9875 -0.675,3.6 -0.6375,1.6125 -1.875,2.7375 -1.2,1.125 -2.9625,1.725 -1.725,0.6 -3.8625,0.6 -1.125,0 -2.1,-0.225 -0.975,-0.225 -1.8375,-0.225 -0.45,0 -0.9375,0.15 -0.4875,0.15 -0.75,0.3 l 0,-8.925 q 1.05,1.3125 2.25,2.25 1.2,0.9 2.8875,0.9 1.5375,0 2.475,-0.825 0.9375,-0.8625 0.9375,-2.2875 0,-1.0875 -0.6375,-1.9125 -0.6375,-0.825 -1.6125,-1.5375 -0.975,-0.75 -2.1,-1.5 -1.125,-0.75 -2.1,-1.65 -0.975,-0.9375 -1.6125,-2.1 -0.6375,-1.2 -0.6375,-2.8125 0,-1.575 0.4875,-2.925 0.4875,-1.3875 1.3875,-2.4 0.9375,-1.0125 2.25,-1.575 1.3125,-0.6 2.9625,-0.6 1.2,0 1.9875,0.225 0.825,0.225 1.6875,0.225 0.45,0 0.75,-0.075 0.3375,-0.075 0.6375,-0.375 l 0.075,0 0,7.6875 z"
         style="font-style:normal;font-variant:normal;font-weight:normal;font-stretch:normal;font-size:37.5px;font-family:'SerifGothic LT Heavy';-inkscape-font-specification:'SerifGothic LT Heavy, ';fill:#4d4d4d;fill-opacity:1"
         id="path4235" />
      <path
         d="m 483.33691,518.61071 0.075,0 4.5375,-12.7125 6.1875,0 q -0.1875,0.3 -0.3375,0.7125 -0.15,0.375 -0.15,0.825 0,0.45 0.0375,0.975 0.075,0.525 0.15,1.125 l 3.0375,19.6875 q 0.1875,1.0125 0.525,1.95 0.375,0.9 0.7875,1.425 l -8.1,0 q 0.225,-0.2625 0.45,-0.6 0.2625,-0.3375 0.2625,-0.8625 0,-0.3375 0,-0.7125 0,-0.4125 -0.075,-0.9375 l -1.35,-12.75 -0.075,0 -5.8875,16.4625 -0.3,0 -6,-16.4625 -0.075,0 -1.1625,12.975 q -0.075,0.525 -0.075,0.9 0,0.3375 0,0.525 0,0.525 0.225,0.8625 0.2625,0.3375 0.4875,0.6 l -8.0625,0 q 0.4125,-0.525 0.75,-1.425 0.3375,-0.9375 0.525,-1.95 l 3.075,-19.6875 q 0.075,-0.6 0.1125,-1.125 0.075,-0.525 0.075,-0.975 0,-0.45 -0.15,-0.825 -0.15,-0.4125 -0.3375,-0.7125 l 6.375,0 4.4625,12.7125 z"
         style="font-style:normal;font-variant:normal;font-weight:normal;font-stretch:normal;font-size:37.5px;font-family:'SerifGothic LT Heavy';-inkscape-font-specification:'SerifGothic LT Heavy, ';fill:#4d4d4d;fill-opacity:1"
         id="path4237" />
    </g>
    <g
       style="font-style:normal;font-weight:normal;font-size:40.96755981px;line-height:125%;font-family:sans-serif;letter-spacing:0px;word-spacing:0px;fill:#4d4d4d;fill-opacity:1;stroke:none;stroke-width:1px;stroke-linecap:butt;stroke-linejoin:miter;stroke-opacity:1"
       id="text3336-2-2-9-7-4">
      <path
         d="m 76.13015,994.76701 -0.522336,1.35193 q -0.122903,0.30726 -0.184354,0.52234 -0.03073,0.21508 -0.03073,0.49161 0,0.36871 0.122903,0.61451 0.122902,0.24581 0.368708,0.49161 l -7.036179,0 q 0.245806,-0.15362 0.43016,-0.43016 0.184354,-0.27653 0.276531,-0.52233 l 7.220532,-18.0667 q 0.245805,-0.64524 0.399434,-1.07539 0.153628,-0.43016 0.153628,-0.67597 0,-0.36871 -0.122903,-0.61451 -0.122902,-0.24581 -0.368708,-0.49161 l 5.25409,0 7.835046,20.30966 q 0.184354,0.49162 0.460885,0.89105 0.276531,0.39943 0.522336,0.67596 l -6.974727,0 q 0.245806,-0.2458 0.368708,-0.49161 0.122903,-0.2458 0.122903,-0.61451 0,-0.27653 -0.06145,-0.49161 -0.03073,-0.21508 -0.153629,-0.52234 l -0.522336,-1.35193 -7.558515,0 z m 6.114408,-4.42449 -2.242974,-7.25126 -0.06145,0 -2.242974,7.25126 4.547399,0 z"
         style="font-style:normal;font-variant:normal;font-weight:normal;font-stretch:normal;font-size:30.72566986px;font-family:'SerifGothic LT Heavy';-inkscape-font-specification:'SerifGothic LT Heavy, ';fill:#4d4d4d;fill-opacity:1"
         id="path4240" />
      <path
         d="m 91.338396,998.23901 q 0.430159,-0.2458 0.583787,-0.79886 0.184354,-0.58379 0.184354,-1.47484 l 0,-17.32927 q 0,-0.89105 -0.184354,-1.44411 -0.153628,-0.58379 -0.583787,-0.82959 l 6.606019,0 q -0.43016,0.2458 -0.614514,0.82959 -0.153628,0.55306 -0.153628,1.44411 l 0,14.87122 4.332317,0 q 1.38266,0 2.30443,-1.0754 l 0,5.80715 -12.474624,0 z"
         style="font-style:normal;font-variant:normal;font-weight:normal;font-stretch:normal;font-size:30.72566986px;font-family:'SerifGothic LT Heavy';-inkscape-font-specification:'SerifGothic LT Heavy, ';fill:#4d4d4d;fill-opacity:1"
         id="path4242" />
      <path
         d="m 107.14795,998.23901 q 0.43016,-0.2458 0.58379,-0.79886 0.18435,-0.58379 0.18435,-1.47484 l 0,-7.65069 -4.7932,-7.68142 q -0.33798,-0.55306 -0.76814,-1.16757 -0.43016,-0.64524 -0.86032,-1.22903 -0.39943,-0.61451 -0.73742,-1.10612 -0.3687,-0.52234 -0.55306,-0.76814 l 7.58924,0 q -0.2458,0.21508 -0.39943,0.43016 -0.1229,0.21508 -0.1229,0.55306 0,0.2458 0.1229,0.55306 0.15363,0.27653 0.43016,0.79887 l 2.70386,4.88538 0.0614,0 2.58095,-4.97756 q 0.24581,-0.43016 0.33799,-0.70669 0.1229,-0.30726 0.1229,-0.55306 0,-0.33798 -0.15363,-0.55306 -0.1229,-0.21508 -0.36871,-0.43016 l 7.83505,0 q -0.61451,0.52233 -1.22903,1.4441 l -6.72892,10.50818 0,7.65069 q 0,0.89105 0.15363,1.47484 0.18435,0.55306 0.61451,0.79886 l -6.60602,0 z"
         style="font-style:normal;font-variant:normal;font-weight:normal;font-stretch:normal;font-size:30.72566986px;font-family:'SerifGothic LT Heavy';-inkscape-font-specification:'SerifGothic LT Heavy, ';fill:#4d4d4d;fill-opacity:1"
         id="path4244" />
      <path
         d="m 132.01438,986.28673 5.19264,9.03335 q 0.49161,0.82959 1.0754,1.62846 0.58379,0.76814 1.38265,1.29047 l -7.95794,0 q 0.30725,-0.21508 0.49161,-0.43016 0.21508,-0.21508 0.21508,-0.55306 0,-0.2458 -0.15363,-0.55306 -0.1229,-0.30726 -0.36871,-0.82959 l -2.67313,-5.31554 -2.24298,4.85465 q -0.2458,0.52234 -0.49161,1.01395 -0.21508,0.46088 -0.21508,0.82959 0,0.33798 0.18436,0.55306 0.18435,0.21508 0.43016,0.43016 l -7.68142,0 q 1.41338,-1.22902 2.18152,-2.67313 l 5.03901,-9.27915 -3.50273,-6.17586 q -0.86031,-1.50556 -1.53628,-2.33515 -0.64524,-0.86032 -1.13685,-1.41338 l 7.46634,0 q -0.24581,0.21508 -0.39943,0.43016 -0.12291,0.21508 -0.12291,0.55306 0,0.15363 0.0922,0.46088 0.0922,0.27653 0.27653,0.64524 l 1.47483,3.2262 0.0615,0 1.72064,-3.16475 q 0.24581,-0.39943 0.36871,-0.70669 0.1229,-0.33798 0.1229,-0.46088 0,-0.33798 -0.2458,-0.55306 -0.24581,-0.21508 -0.55307,-0.43016 l 7.58925,0 q -0.36871,0.30725 -0.73742,0.76814 -0.33798,0.43016 -0.70669,0.95249 -0.33798,0.52234 -0.67597,1.0754 -0.30725,0.52234 -0.58378,1.01395 l -3.37983,6.11441 z"
         style="font-style:normal;font-variant:normal;font-weight:normal;font-stretch:normal;font-size:30.72566986px;font-family:'SerifGothic LT Heavy';-inkscape-font-specification:'SerifGothic LT Heavy, ';fill:#4d4d4d;fill-opacity:1"
         id="path4246" />
      <path
         d="m 159.91377,986.77834 0.0615,0 3.71781,-10.416 5.06974,0 q -0.15363,0.2458 -0.27654,0.58378 -0.1229,0.30726 -0.1229,0.67597 0,0.36871 0.0307,0.79887 0.0615,0.43016 0.1229,0.92177 l 2.48878,16.13097 q 0.15363,0.8296 0.43016,1.59774 0.30726,0.73741 0.64524,1.16757 l -6.63675,0 q 0.18436,-0.21508 0.36871,-0.49161 0.21508,-0.27653 0.21508,-0.70669 0,-0.27653 0,-0.58379 0,-0.33798 -0.0614,-0.76814 l -1.10612,-10.44672 -0.0615,0 -4.82393,13.48856 -0.2458,0 -4.91611,-13.48856 -0.0615,0 -0.9525,10.63108 q -0.0615,0.43016 -0.0615,0.73741 0,0.27653 0,0.43016 0,0.43016 0.18436,0.70669 0.21508,0.27653 0.39943,0.49161 l -6.60602,0 q 0.33798,-0.43016 0.61451,-1.16757 0.27654,-0.76814 0.43016,-1.59774 l 2.51951,-16.13097 q 0.0614,-0.49161 0.0922,-0.92177 0.0615,-0.43016 0.0615,-0.79887 0,-0.36871 -0.12291,-0.67597 -0.1229,-0.33798 -0.27653,-0.58378 l 5.22337,0 3.65635,10.416 z"
         style="font-style:normal;font-variant:normal;font-weight:normal;font-stretch:normal;font-size:30.72566986px;font-family:'SerifGothic LT Heavy';-inkscape-font-specification:'SerifGothic LT Heavy, ';fill:#4d4d4d;fill-opacity:1"
         id="path4248" />
      <path
         d="m 178.32901,994.76701 -0.52234,1.35193 q -0.1229,0.30726 -0.18435,0.52234 -0.0307,0.21508 -0.0307,0.49161 0,0.36871 0.12291,0.61451 0.1229,0.24581 0.3687,0.49161 l -7.03617,0 q 0.2458,-0.15362 0.43016,-0.43016 0.18435,-0.27653 0.27653,-0.52233 l 7.22053,-18.0667 q 0.2458,-0.64524 0.39943,-1.07539 0.15363,-0.43016 0.15363,-0.67597 0,-0.36871 -0.1229,-0.61451 -0.1229,-0.24581 -0.36871,-0.49161 l 5.25409,0 7.83505,20.30966 q 0.18435,0.49162 0.46088,0.89105 0.27653,0.39943 0.52234,0.67596 l -6.97473,0 q 0.24581,-0.2458 0.36871,-0.49161 0.1229,-0.2458 0.1229,-0.61451 0,-0.27653 -0.0615,-0.49161 -0.0307,-0.21508 -0.15363,-0.52234 l -0.52234,-1.35193 -7.55851,0 z m 6.11441,-4.42449 -2.24298,-7.25126 -0.0614,0 -2.24297,7.25126 4.5474,0 z"
         style="font-style:normal;font-variant:normal;font-weight:normal;font-stretch:normal;font-size:30.72566986px;font-family:'SerifGothic LT Heavy';-inkscape-font-specification:'SerifGothic LT Heavy, ';fill:#4d4d4d;fill-opacity:1"
         id="path4250" />
      <path
         d="m 196.23439,998.23901 q 0.43016,-0.2458 0.58379,-0.79886 0.18435,-0.58379 0.18435,-1.47484 l 0,-7.65069 -4.7932,-7.68142 q -0.33798,-0.55306 -0.76814,-1.16757 -0.43016,-0.64524 -0.86032,-1.22903 -0.39944,-0.61451 -0.73742,-1.10612 -0.36871,-0.52234 -0.55306,-0.76814 l 7.58924,0 q -0.24581,0.21508 -0.39943,0.43016 -0.12291,0.21508 -0.12291,0.55306 0,0.2458 0.12291,0.55306 0.15362,0.27653 0.43015,0.79887 l 2.70386,4.88538 0.0615,0 2.58095,-4.97756 q 0.24581,-0.43016 0.33798,-0.70669 0.12291,-0.30726 0.12291,-0.55306 0,-0.33798 -0.15363,-0.55306 -0.1229,-0.21508 -0.36871,-0.43016 l 7.83505,0 q -0.61452,0.52233 -1.22903,1.4441 l -6.72892,10.50818 0,7.65069 q 0,0.89105 0.15363,1.47484 0.18435,0.55306 0.61451,0.79886 l -6.60602,0 z"
         style="font-style:normal;font-variant:normal;font-weight:normal;font-stretch:normal;font-size:30.72566986px;font-family:'SerifGothic LT Heavy';-inkscape-font-specification:'SerifGothic LT Heavy, ';fill:#4d4d4d;fill-opacity:1"
         id="path4252" />
      <path
         d="m 210.65482,978.63604 q 0,-0.79887 -0.18436,-1.35193 -0.15363,-0.55307 -0.67596,-0.86032 l 0,-0.0615 13.36566,0 0,5.80715 q -0.92177,-1.0754 -2.30442,-1.0754 l -5.13119,0 0,3.84071 3.44128,0 q 0.64523,0 1.01394,-0.30726 0.36871,-0.33798 0.70669,-0.76814 l 0,6.88255 q -0.33798,-0.43016 -0.70669,-0.73742 -0.36871,-0.33798 -1.01394,-0.33798 l -3.44128,0 0,3.84071 5.22336,0 q 1.38266,0 2.30443,-1.0754 l 0,5.80715 -13.36567,0 q 0.43016,-0.2458 0.58379,-0.79886 0.18436,-0.58379 0.18436,-1.47484 l 0,-17.32927 z"
         style="font-style:normal;font-variant:normal;font-weight:normal;font-stretch:normal;font-size:30.72566986px;font-family:'SerifGothic LT Heavy';-inkscape-font-specification:'SerifGothic LT Heavy, ';fill:#4d4d4d;fill-opacity:1"
         id="path4254" />
      <path
         d="m 226.01765,975.87073 q 0.67597,0.58378 1.50556,0.58378 0.36871,0 0.89105,-0.0922 0.52233,-0.0922 1.10612,-0.18436 0.61451,-0.1229 1.22903,-0.21508 0.64524,-0.0922 1.1983,-0.0922 1.84354,0 3.22619,0.58378 1.41338,0.55307 2.36588,1.53629 0.98322,0.95249 1.47483,2.24297 0.49161,1.29048 0.49161,2.76531 0,0.79887 -0.1229,1.56701 -0.1229,0.76814 -0.43016,1.41338 -0.27653,0.61451 -0.76814,1.04467 -0.49161,0.39944 -1.25975,0.49161 l 0,0.0615 q 1.3212,0.27653 2.30442,1.16757 1.01395,0.89105 1.72064,2.12007 0.70669,1.22903 1.16758,2.61168 0.46088,1.38266 0.70669,2.67314 0.18435,1.01395 0.46088,1.41338 0.27653,0.36871 0.61451,0.67596 l -7.03617,0 q 0.2458,-0.33798 0.30725,-0.76814 0.0922,-0.46088 0.0922,-0.89104 0,-1.41338 -0.49161,-2.55023 -0.49161,-1.16758 -1.35193,-2.0279 -0.82959,-0.89104 -1.96644,-1.47483 -1.10613,-0.61451 -2.36588,-0.98322 l 0,6.42166 q 0,0.89105 0.15363,1.47484 0.18435,0.55306 0.61451,0.79886 l -6.60602,0 q 0.43016,-0.2458 0.58379,-0.79886 0.18435,-0.58379 0.18435,-1.47484 l 0,-20.09458 z m 5.06974,9.43278 q 0.18435,0.0307 0.36871,0.0307 0.18435,0 0.39943,0 1.01395,0 1.68991,-0.67596 0.67597,-0.70669 0.67597,-1.68991 0,-0.98323 -0.67597,-1.65919 -0.67596,-0.70669 -1.68991,-0.70669 -0.21508,0 -0.39943,0 -0.18436,0 -0.36871,0.0307 l 0,4.67031 z"
         style="font-style:normal;font-variant:normal;font-weight:normal;font-stretch:normal;font-size:30.72566986px;font-family:'SerifGothic LT Heavy';-inkscape-font-specification:'SerifGothic LT Heavy, ';fill:#4d4d4d;fill-opacity:1"
         id="path4256" />
      <path
         d="m 270.84688,985.14988 q 0.64524,0 1.01395,-0.30726 0.36871,-0.33798 0.70669,-0.76814 l 0,5.7457 -2.2737,0 q 0,0.33798 0.0307,0.67596 0.0615,0.30726 0.0615,0.7067 0,1.16757 -0.46089,2.48877 -0.43016,1.32121 -1.44411,2.45806 -1.01394,1.10612 -2.6424,1.84354 -1.59774,0.73741 -3.90216,0.73741 -1.78209,0 -3.3491,-0.61451 -1.56701,-0.61451 -2.73459,-1.72064 -1.13685,-1.10612 -1.81281,-2.6424 -0.67597,-1.56701 -0.67597,-3.44128 0,-1.72064 0.64524,-3.10329 0.64524,-1.41338 1.90499,-2.21225 -0.33798,-0.43016 -0.58378,-1.0754 -0.24581,-0.64524 -0.24581,-1.25975 0,-1.41338 0.52234,-2.64241 0.52233,-1.25975 1.4441,-2.18152 0.92177,-0.92177 2.1508,-1.44411 1.22903,-0.52233 2.64241,-0.52233 0.82959,0 1.53628,0.15362 0.70669,0.12291 0.92177,0.12291 0.43016,0 0.67597,-0.0614 0.27653,-0.0922 0.49161,-0.21508 l 0,6.48311 q -0.58379,-0.55306 -1.38266,-0.98322 -0.76814,-0.43016 -1.78209,-0.43016 -1.22902,0 -1.90499,0.67597 -0.64524,0.67596 -0.64524,1.68991 0,1.13685 0.49161,1.90499 0.52234,0.73742 1.59774,0.89104 l 0,0.0922 q -0.70669,0 -1.3212,0.27653 -0.61452,0.27653 -1.0754,0.73742 -0.46089,0.46088 -0.73742,1.10612 -0.27653,0.61452 -0.27653,1.35193 0,0.92177 0.30726,1.65919 0.30725,0.73741 0.79886,1.25975 0.52234,0.52234 1.16758,0.79887 0.67596,0.27653 1.38265,0.27653 0.98323,0 1.65919,-0.30726 0.70669,-0.30725 1.13685,-0.76814 0.43016,-0.46088 0.61451,-1.01395 0.21508,-0.55306 0.21508,-1.0754 0,-0.15362 0,-0.27653 0,-0.15362 -0.0307,-0.30725 l -1.81282,0 q -0.33798,0 -0.58378,0.21508 -0.21508,0.21508 -0.46089,0.49161 l 0,-5.46917 8.0194,0 z"
         style="font-style:normal;font-variant:normal;font-weight:normal;font-stretch:normal;font-size:30.72566986px;font-family:'SerifGothic LT Heavy';-inkscape-font-specification:'SerifGothic LT Heavy, ';fill:#4d4d4d;fill-opacity:1"
         id="path4258" />
      <path
         d="m 295.51047,982.16949 q -0.33798,-0.43016 -0.70669,-0.73742 -0.36871,-0.33798 -1.01395,-0.33798 l -4.73175,0 0,3.84071 3.44127,0 q 0.64524,0 1.01395,-0.30726 0.36871,-0.33798 0.70669,-0.76814 l 0,6.88255 q -0.33798,-0.43016 -0.70669,-0.73742 -0.36871,-0.33798 -1.01395,-0.33798 l -3.44127,0 0,6.29876 q 0,0.89105 0.15363,1.47484 0.18435,0.55306 0.61451,0.79886 l -6.60602,0 q 0.43016,-0.2458 0.58379,-0.79886 0.18435,-0.58379 0.18435,-1.47484 l 0,-18.80411 q 0,-0.43016 -0.21508,-0.79886 l 11.73721,0 0,5.80715 z"
         style="font-style:normal;font-variant:normal;font-weight:normal;font-stretch:normal;font-size:30.72566986px;font-family:'SerifGothic LT Heavy';-inkscape-font-specification:'SerifGothic LT Heavy, ';fill:#4d4d4d;fill-opacity:1"
         id="path4260" />
      <path
         d="m 297.61085,978.63604 q 0,-0.79887 -0.18435,-1.35193 -0.15363,-0.55307 -0.67596,-0.86032 l 0,-0.0615 13.36566,0 0,5.80715 q -0.92177,-1.0754 -2.30442,-1.0754 l -5.13119,0 0,3.84071 3.44128,0 q 0.64523,0 1.01394,-0.30726 0.36871,-0.33798 0.70669,-0.76814 l 0,6.88255 q -0.33798,-0.43016 -0.70669,-0.73742 -0.36871,-0.33798 -1.01394,-0.33798 l -3.44128,0 0,3.84071 5.22336,0 q 1.38266,0 2.30443,-1.0754 l 0,5.80715 -13.36567,0 q 0.43016,-0.2458 0.58379,-0.79886 0.18435,-0.58379 0.18435,-1.47484 l 0,-17.32927 z"
         style="font-style:normal;font-variant:normal;font-weight:normal;font-stretch:normal;font-size:30.72566986px;font-family:'SerifGothic LT Heavy';-inkscape-font-specification:'SerifGothic LT Heavy, ';fill:#4d4d4d;fill-opacity:1"
         id="path4262" />
      <path
         d="m 312.35918,998.23901 q 0.43016,-0.2458 0.58379,-0.79886 0.18435,-0.58379 0.18435,-1.47484 l 0,-17.32927 q 0,-0.89105 -0.18435,-1.44411 -0.15363,-0.58379 -0.58379,-0.82959 l 6.60602,0 q -0.43016,0.2458 -0.61451,0.82959 -0.15363,0.55306 -0.15363,1.44411 l 0,14.87122 4.33232,0 q 1.38265,0 2.30442,-1.0754 l 0,5.80715 -12.47462,0 z"
         style="font-style:normal;font-variant:normal;font-weight:normal;font-stretch:normal;font-size:30.72566986px;font-family:'SerifGothic LT Heavy';-inkscape-font-specification:'SerifGothic LT Heavy, ';fill:#4d4d4d;fill-opacity:1"
         id="path4264" />
      <path
         d="m 326.4733,978.63604 q 0,-0.89105 -0.18435,-1.44411 -0.15363,-0.58379 -0.58379,-0.82959 l 6.60602,0 q -0.43016,0.2458 -0.61451,0.82959 -0.15363,0.55306 -0.15363,1.44411 l 0,17.32927 q 0,0.89105 0.15363,1.47484 0.18435,0.55306 0.61451,0.79886 l -6.60602,0 q 0.43016,-0.2458 0.58379,-0.79886 0.18435,-0.58379 0.18435,-1.47484 l 0,-17.32927 z"
         style="font-style:normal;font-variant:normal;font-weight:normal;font-stretch:normal;font-size:30.72566986px;font-family:'SerifGothic LT Heavy';-inkscape-font-specification:'SerifGothic LT Heavy, ';fill:#4d4d4d;fill-opacity:1"
         id="path4266" />
      <path
         d="m 345.53378,986.28673 5.19264,9.03335 q 0.49161,0.82959 1.0754,1.62846 0.58379,0.76814 1.38266,1.29047 l -7.95795,0 q 0.30725,-0.21508 0.49161,-0.43016 0.21508,-0.21508 0.21508,-0.55306 0,-0.2458 -0.15363,-0.55306 -0.1229,-0.30726 -0.36871,-0.82959 l -2.67313,-5.31554 -2.24298,4.85465 q -0.2458,0.52234 -0.49161,1.01395 -0.21508,0.46088 -0.21508,0.82959 0,0.33798 0.18436,0.55306 0.18435,0.21508 0.43016,0.43016 l -7.68142,0 q 1.41338,-1.22902 2.18152,-2.67313 l 5.03901,-9.27915 -3.50272,-6.17586 q -0.86032,-1.50556 -1.53629,-2.33515 -0.64524,-0.86032 -1.13685,-1.41338 l 7.46634,0 q -0.2458,0.21508 -0.39943,0.43016 -0.12291,0.21508 -0.12291,0.55306 0,0.15363 0.0922,0.46088 0.0922,0.27653 0.27653,0.64524 l 1.47483,3.2262 0.0615,0 1.72063,-3.16475 q 0.24581,-0.39943 0.36871,-0.70669 0.1229,-0.33798 0.1229,-0.46088 0,-0.33798 -0.2458,-0.55306 -0.24581,-0.21508 -0.55306,-0.43016 l 7.58924,0 q -0.36871,0.30725 -0.73742,0.76814 -0.33798,0.43016 -0.70669,0.95249 -0.33798,0.52234 -0.67596,1.0754 -0.30726,0.52234 -0.58379,1.01395 l -3.37983,6.11441 z"
         style="font-style:normal;font-variant:normal;font-weight:normal;font-stretch:normal;font-size:30.72566986px;font-family:'SerifGothic LT Heavy';-inkscape-font-specification:'SerifGothic LT Heavy, ';fill:#4d4d4d;fill-opacity:1"
         id="path4268" />
      <path
         d="m 363.29371,975.87073 q 0.24581,0.2458 0.55306,0.43016 0.33798,0.18435 0.76814,0.18435 0.79887,0 1.81282,-0.30726 1.04467,-0.30725 2.21225,-0.30725 1.65918,0 3.04184,0.46088 1.38265,0.43016 2.36587,1.29048 1.01395,0.86032 1.56701,2.12007 0.55307,1.25975 0.55307,2.85749 0,1.01394 -0.24581,1.75136 -0.21508,0.70669 -0.64524,1.22903 1.16758,0.79887 1.65919,2.02789 0.52233,1.22903 0.52233,2.94967 0,1.65918 -0.58378,3.07256 -0.55307,1.38266 -1.62846,2.42733 -1.04468,1.01395 -2.55023,1.59774 -1.47484,0.58378 -3.28765,0.58378 l -6.88255,0 q 0.43016,-0.2458 0.58379,-0.79886 0.18435,-0.58379 0.18435,-1.47484 l 0,-20.09458 z m 5.06974,17.29855 0.86031,0 q 1.53629,0 2.33516,-0.9525 0.82959,-0.95249 0.82959,-2.58095 0,-1.47484 -0.79887,-2.36588 -0.76814,-0.89104 -1.99717,-1.29048 l 0,-0.0615 q 0.79887,-0.33798 1.25976,-0.9525 0.49161,-0.61451 0.49161,-1.50555 0,-1.13685 -0.52234,-1.81282 -0.49161,-0.70669 -1.50556,-0.70669 -0.30725,0 -0.52233,0.0307 -0.21508,0 -0.43016,0.0307 l 0,12.16737 z"
         style="font-style:normal;font-variant:normal;font-weight:normal;font-stretch:normal;font-size:30.72566986px;font-family:'SerifGothic LT Heavy';-inkscape-font-specification:'SerifGothic LT Heavy, ';fill:#4d4d4d;fill-opacity:1"
         id="path4270" />
      <path
         d="m 380.30611,975.87073 q 0.67596,0.58378 1.50555,0.58378 0.36871,0 0.89105,-0.0922 0.52233,-0.0922 1.10612,-0.18436 0.61452,-0.1229 1.22903,-0.21508 0.64524,-0.0922 1.1983,-0.0922 1.84354,0 3.2262,0.58378 1.41338,0.55307 2.36587,1.53629 0.98322,0.95249 1.47483,2.24297 0.49162,1.29048 0.49162,2.76531 0,0.79887 -0.12291,1.56701 -0.1229,0.76814 -0.43016,1.41338 -0.27653,0.61451 -0.76814,1.04467 -0.49161,0.39944 -1.25975,0.49161 l 0,0.0615 q 1.3212,0.27653 2.30442,1.16757 1.01395,0.89105 1.72064,2.12007 0.70669,1.22903 1.16758,2.61168 0.46088,1.38266 0.70669,2.67314 0.18435,1.01395 0.46088,1.41338 0.27653,0.36871 0.61452,0.67596 l -7.03618,0 q 0.2458,-0.33798 0.30725,-0.76814 0.0922,-0.46088 0.0922,-0.89104 0,-1.41338 -0.49161,-2.55023 -0.49161,-1.16758 -1.35193,-2.0279 -0.82959,-0.89104 -1.96644,-1.47483 -1.10613,-0.61451 -2.36588,-0.98322 l 0,6.42166 q 0,0.89105 0.15363,1.47484 0.18435,0.55306 0.61451,0.79886 l -6.60602,0 q 0.43016,-0.2458 0.58379,-0.79886 0.18436,-0.58379 0.18436,-1.47484 l 0,-20.09458 z m 5.06973,9.43278 q 0.18436,0.0307 0.36871,0.0307 0.18435,0 0.39943,0 1.01395,0 1.68992,-0.67596 0.67596,-0.70669 0.67596,-1.68991 0,-0.98323 -0.67596,-1.65919 -0.67597,-0.70669 -1.68992,-0.70669 -0.21508,0 -0.39943,0 -0.18435,0 -0.36871,0.0307 l 0,4.67031 z"
         style="font-style:normal;font-variant:normal;font-weight:normal;font-stretch:normal;font-size:30.72566986px;font-family:'SerifGothic LT Heavy';-inkscape-font-specification:'SerifGothic LT Heavy, ';fill:#4d4d4d;fill-opacity:1"
         id="path4272" />
      <path
         d="m 410.08937,975.87073 q 2.33515,0 4.48595,0.86031 2.1508,0.86032 3.74853,2.39661 1.62846,1.50555 2.58096,3.62563 0.98322,2.08934 0.98322,4.5474 0,2.45805 -0.98322,4.57812 -0.9525,2.08935 -2.58096,3.62563 -1.59773,1.50556 -3.74853,2.36588 -2.1508,0.86031 -4.48595,0.86031 -2.36587,0 -4.51667,-0.86031 -2.12007,-0.86032 -3.74853,-2.36588 -1.59774,-1.53628 -2.58096,-3.62563 -0.95249,-2.12007 -0.95249,-4.57812 0,-2.45806 0.95249,-4.5474 0.98322,-2.12008 2.58096,-3.62563 1.62846,-1.53629 3.74853,-2.39661 2.1508,-0.86031 4.51667,-0.86031 z m 0,5.06973 q -1.53628,0 -2.76531,0.55306 -1.1983,0.52234 -2.02789,1.41338 -0.82959,0.89105 -1.29048,2.05862 -0.43016,1.13685 -0.43016,2.33516 0,1.1983 0.43016,2.36587 0.46089,1.13685 1.29048,2.0279 0.82959,0.89104 2.02789,1.4441 1.22903,0.52234 2.76531,0.52234 1.53629,0 2.73459,-0.52234 1.22903,-0.55306 2.05862,-1.4441 0.82959,-0.89105 1.25975,-2.0279 0.46089,-1.16757 0.46089,-2.36587 0,-1.19831 -0.46089,-2.33516 -0.43016,-1.16757 -1.25975,-2.05862 -0.82959,-0.89104 -2.05862,-1.41338 -1.1983,-0.55306 -2.73459,-0.55306 z"
         style="font-style:normal;font-variant:normal;font-weight:normal;font-stretch:normal;font-size:30.72566986px;font-family:'SerifGothic LT Heavy';-inkscape-font-specification:'SerifGothic LT Heavy, ';fill:#4d4d4d;fill-opacity:1"
         id="path4274" />
      <path
         d="m 444.77817,996.70273 q -0.0614,0.21508 -0.18435,0.46089 -0.0922,0.2458 -0.0922,0.39943 0,0.18435 0.0922,0.36871 0.0922,0.15363 0.18435,0.30725 l -4.70103,0 -2.79603,-8.2652 -0.0615,0 -1.96645,6.60602 q -0.1229,0.39943 -0.18435,0.58379 -0.0614,0.18435 -0.0614,0.39943 0,0.18435 0.0922,0.36871 0.0922,0.15363 0.18435,0.30725 l -4.60885,0 -7.34344,-19.81805 q -0.2458,-0.61452 -0.58378,-1.1983 -0.33799,-0.58379 -0.58379,-0.86032 l 6.91327,0 q -0.2458,0.21508 -0.43015,0.43016 -0.15363,0.21508 -0.15363,0.55306 0,0.27653 0.0615,0.55306 0.0922,0.27653 0.21508,0.61451 l 3.93288,11.73721 0.0614,0 1.93572,-6.51384 -2.21225,-5.56135 q -0.18435,-0.46088 -0.43016,-0.95249 -0.21508,-0.52234 -0.49161,-0.86032 l 6.79038,0 q -0.24581,0.21508 -0.43016,0.43016 -0.15363,0.21508 -0.15363,0.55306 0,0.18435 0.0922,0.52233 0.1229,0.30726 0.2458,0.64524 l 3.74853,11.86011 0.0922,0 4.08651,-11.86011 q 0.12291,-0.33798 0.21508,-0.64524 0.12291,-0.33798 0.12291,-0.52233 0,-0.33798 -0.15363,-0.55306 -0.1229,-0.21508 -0.36871,-0.43016 l 6.88255,0 q -0.33798,0.33798 -0.64524,0.76814 -0.27653,0.39943 -0.43016,0.86032 l -6.88255,18.71193 z"
         style="font-style:normal;font-variant:normal;font-weight:normal;font-stretch:normal;font-size:30.72566986px;font-family:'SerifGothic LT Heavy';-inkscape-font-specification:'SerifGothic LT Heavy, ';fill:#4d4d4d;fill-opacity:1"
         id="path4276" />
      <path
         d="m 453.94547,978.63604 q 0,-0.89105 -0.18436,-1.44411 -0.15363,-0.58379 -0.58379,-0.82959 l 5.80716,0 q 1.84354,3.25692 3.50272,6.39094 1.65919,3.10329 2.76531,5.83787 l 0.0615,0 0,-9.95511 q 0,-0.89105 -0.18435,-1.44411 -0.15363,-0.58379 -0.58379,-0.82959 l 6.60602,0 q -0.43016,0.2458 -0.61451,0.82959 -0.15363,0.55306 -0.15363,1.44411 l 0,17.32927 q 0,0.89105 0.15363,1.47484 0.18435,0.55306 0.61451,0.79886 l -5.80715,0 q -0.82959,-1.72063 -1.75136,-3.34909 -0.92177,-1.65919 -1.78209,-3.16475 -0.86032,-1.50556 -1.56701,-2.85749 -0.70669,-1.35193 -1.16758,-2.48877 l -0.0614,0 0,9.5864 q 0,0.89105 0.15363,1.47484 0.18435,0.55306 0.61451,0.79886 l -6.60602,0 q 0.43016,-0.2458 0.58379,-0.79886 0.18436,-0.58379 0.18436,-1.47484 l 0,-17.32927 z"
         style="font-style:normal;font-variant:normal;font-weight:normal;font-stretch:normal;font-size:30.72566986px;font-family:'SerifGothic LT Heavy';-inkscape-font-specification:'SerifGothic LT Heavy, ';fill:#4d4d4d;fill-opacity:1"
         id="path4278" />
    </g>
    <g
       style="font-style:normal;font-weight:normal;font-size:40.96755981px;line-height:125%;font-family:sans-serif;letter-spacing:0px;word-spacing:0px;fill:#4d4d4d;fill-opacity:1;stroke:none;stroke-width:1px;stroke-linecap:butt;stroke-linejoin:miter;stroke-opacity:1"
       id="text3336-2-2-1-0-5-2">
      <path
         d="m 70.440778,943.6283 q 0,-0.66573 -0.153629,-1.12661 -0.128023,-0.46089 -0.563304,-0.71693 l 0,-0.0512 11.138056,0 0,4.83929 q -0.768142,-0.89617 -1.920355,-0.89617 l -4.275989,0 0,3.2006 2.86773,0 q 0.537699,0 0.844955,-0.25605 0.307257,-0.28165 0.588909,-0.64012 l 0,5.73546 q -0.281652,-0.35847 -0.588909,-0.61451 -0.307256,-0.28166 -0.844955,-0.28166 l -2.86773,0 0,3.20059 4.352804,0 q 1.152212,0 1.920354,-0.89616 l 0,4.83929 -11.138055,0 q 0.358466,-0.20484 0.486489,-0.66572 0.153629,-0.48649 0.153629,-1.22903 l 0,-14.44106 z"
         style="font-style:normal;font-variant:normal;font-weight:normal;font-stretch:normal;font-size:25.60472488px;font-family:'SerifGothic LT Heavy';-inkscape-font-specification:'SerifGothic LT Heavy, ';fill:#4d4d4d;fill-opacity:1"
         id="path4281" />
      <path
         d="m 95.994293,956.30264 q 0,0.64011 0.179233,0.87056 0.179233,0.20483 0.358466,0.40967 -0.537699,0 -1.229026,0.43528 -0.691328,0.43528 -1.510679,0.94738 -0.97298,0.61451 -1.945959,0.99858 -0.97298,0.40968 -2.355635,0.40968 -1.305841,0 -2.534868,-0.40968 -1.229026,-0.40967 -2.202006,-1.22903 -0.97298,-0.84495 -1.561888,-2.07398 -0.588909,-1.25463 -0.588909,-2.94454 0,-1.45947 0.43528,-2.6885 0.460885,-1.22902 1.280237,-2.12519 0.844956,-0.89617 1.997168,-1.38265 1.152213,-0.5121 2.534868,-0.5121 0.947375,0 1.638702,0.23044 0.691328,0.23045 1.561889,0.74254 l 0,-4.96732 q 0,-0.64011 -0.179233,-0.84495 -0.179234,-0.23044 -0.358467,-0.43528 l 4.480827,0 0,14.56909 z m -3.943127,-4.63446 q -0.409676,-0.35847 -0.947375,-0.64012 -0.537699,-0.30725 -1.280236,-0.30725 -1.382656,0 -2.278821,0.76814 -0.896165,0.74253 -0.896165,2.202 0,1.45947 0.896165,2.22761 0.896165,0.74254 2.278821,0.74254 0.742537,0 1.30584,-0.28165 0.563304,-0.28165 0.921771,-0.79375 l 0,-3.91752 z"
         style="font-style:normal;font-variant:normal;font-weight:normal;font-stretch:normal;font-size:25.60472488px;font-family:'SerifGothic LT Heavy';-inkscape-font-specification:'SerifGothic LT Heavy, ';fill:#4d4d4d;fill-opacity:1"
         id="path4283" />
      <path
         d="m 98.870423,944.44765 q 0,-0.81935 0.563304,-1.45947 0.563304,-0.64012 1.536283,-0.64012 0.97298,0 1.53628,0.64012 0.56331,0.64012 0.56331,1.45947 0,0.81935 -0.56331,1.45947 -0.5633,0.64012 -1.53628,0.64012 -0.972979,0 -1.536283,-0.64012 -0.563304,-0.64012 -0.563304,-1.45947 z m 4.071147,14.23623 q 0,0.64011 0.17924,0.87056 0.17923,0.20483 0.35846,0.40967 l -5.018523,0 q 0.179233,-0.20484 0.358466,-0.40967 0.179233,-0.23045 0.179233,-0.87056 l 0,-9.98585 q 0,-0.64012 -0.179233,-0.84495 -0.179233,-0.23045 -0.358466,-0.43528 l 4.480823,0 0,11.26608 z"
         style="font-style:normal;font-variant:normal;font-weight:normal;font-stretch:normal;font-size:25.60472488px;font-family:'SerifGothic LT Heavy';-inkscape-font-specification:'SerifGothic LT Heavy, ';fill:#4d4d4d;fill-opacity:1"
         id="path4285" />
      <path
         d="m 106.09856,959.96411 q 0.17923,-0.20484 0.35846,-0.40967 0.17924,-0.23045 0.17924,-0.87056 l 0,-7.80945 -2.81652,0 6.70844,-7.42537 0,3.96874 2.40684,0 0,3.99433 q -0.28165,-0.33286 -0.66572,-0.43528 -0.38407,-0.10242 -0.74254,-0.10242 l -0.94737,0 0,7.80945 q 0,0.64011 0.17923,0.87056 0.17923,0.20483 0.35846,0.40967 l -5.01852,0 z"
         style="font-style:normal;font-variant:normal;font-weight:normal;font-stretch:normal;font-size:25.60472488px;font-family:'SerifGothic LT Heavy';-inkscape-font-specification:'SerifGothic LT Heavy, ';fill:#4d4d4d;fill-opacity:1"
         id="path4287" />
      <path
         d="m 117.95315,955.07361 q 0.64011,1.101 1.58749,1.56189 0.94737,0.46088 2.12519,0.46088 0.97298,0 1.76673,-0.23044 0.79374,-0.25605 1.40826,-0.61451 l 0,4.12236 -0.0512,0 q -0.30726,-0.33286 -0.69133,-0.33286 -0.23044,0 -0.5633,0.0512 -0.33286,0.0512 -0.74254,0.10242 -0.40968,0.0512 -0.84496,0.10242 -0.43528,0.0768 -0.89616,0.0768 -1.58749,0 -2.89334,-0.5121 -1.30584,-0.5377 -2.27882,-1.43386 -0.94737,-0.89617 -1.48507,-2.12519 -0.51209,-1.22903 -0.51209,-2.61169 0,-1.38265 0.51209,-2.61168 0.5377,-1.22903 1.48507,-2.12519 0.97298,-0.89617 2.27882,-1.40826 1.30585,-0.5377 2.89334,-0.5377 1.58749,0 2.84212,0.61451 1.28024,0.58891 2.1764,1.5875 0.89617,0.97298 1.38266,2.27882 0.48649,1.28023 0.48649,2.66289 0,0.35846 0.12802,0.5633 0.12803,0.17924 0.25605,0.35847 l -10.36991,0 z m 6.22194,-2.7141 q -0.51209,-0.97298 -1.28023,-1.51068 -0.74254,-0.5633 -1.92036,-0.5633 -1.17781,0 -1.94596,0.5633 -0.74253,0.5377 -1.25463,1.51068 l 6.40118,0 z"
         style="font-style:normal;font-variant:normal;font-weight:normal;font-stretch:normal;font-size:25.60472488px;font-family:'SerifGothic LT Heavy';-inkscape-font-specification:'SerifGothic LT Heavy, ';fill:#4d4d4d;fill-opacity:1"
         id="path4289" />
      <path
         d="m 143.00297,956.30264 q 0,0.64011 0.17923,0.87056 0.17923,0.20483 0.35847,0.40967 -0.5377,0 -1.22903,0.43528 -0.69133,0.43528 -1.51068,0.94738 -0.97298,0.61451 -1.94596,0.99858 -0.97298,0.40968 -2.35563,0.40968 -1.30585,0 -2.53487,-0.40968 -1.22903,-0.40967 -2.20201,-1.22903 -0.97298,-0.84495 -1.56189,-2.07398 -0.58891,-1.25463 -0.58891,-2.94454 0,-1.45947 0.43529,-2.6885 0.46088,-1.22902 1.28023,-2.12519 0.84496,-0.89617 1.99717,-1.38265 1.15221,-0.5121 2.53487,-0.5121 0.94737,0 1.6387,0.23044 0.69133,0.23045 1.56189,0.74254 l 0,-4.96732 q 0,-0.64011 -0.17923,-0.84495 -0.17924,-0.23044 -0.35847,-0.43528 l 4.48083,0 0,14.56909 z m -3.94313,-4.63446 q -0.40968,-0.35847 -0.94738,-0.64012 -0.5377,-0.30725 -1.28023,-0.30725 -1.38266,0 -2.27882,0.76814 -0.89617,0.74253 -0.89617,2.202 0,1.45947 0.89617,2.22761 0.89616,0.74254 2.27882,0.74254 0.74253,0 1.30584,-0.28165 0.5633,-0.28165 0.92177,-0.79375 l 0,-3.91752 z"
         style="font-style:normal;font-variant:normal;font-weight:normal;font-stretch:normal;font-size:25.60472488px;font-family:'SerifGothic LT Heavy';-inkscape-font-specification:'SerifGothic LT Heavy, ';fill:#4d4d4d;fill-opacity:1"
         id="path4291" />
      <path
         d="m 153.4757,943.01378 q 0,-0.64011 -0.17923,-0.84495 -0.17924,-0.23044 -0.35847,-0.43528 l 4.48083,0 0,6.24755 q 0.43528,-0.25605 0.79374,-0.43528 0.38408,-0.20484 0.74254,-0.30726 0.38407,-0.12802 0.76814,-0.17923 0.40968,-0.0512 0.89617,-0.0512 1.38265,0 2.53487,0.5121 1.15221,0.48648 1.97156,1.38265 0.84496,0.89617 1.28024,2.12519 0.46088,1.22903 0.46088,2.6885 0,1.68991 -0.58891,2.94454 -0.58891,1.22903 -1.56188,2.07398 -0.97298,0.81936 -2.20201,1.22903 -1.22903,0.40968 -2.53487,0.40968 -1.38265,0 -2.35563,-0.40968 -0.97298,-0.38407 -1.94596,-0.99858 -0.81935,-0.5121 -1.51068,-0.94738 -0.69133,-0.43528 -1.22903,-0.43528 0.17923,-0.20484 0.35847,-0.40967 0.17923,-0.23045 0.17923,-0.87056 l 0,-13.28886 z m 3.94313,12.57192 q 0.35846,0.5121 0.92177,0.79375 0.5633,0.28165 1.30584,0.28165 1.38265,0 2.27882,-0.74254 0.89617,-0.76814 0.89617,-2.22761 0,-1.45947 -0.89617,-2.202 -0.89617,-0.76814 -2.27882,-0.76814 -0.74254,0 -1.28024,0.30725 -0.5377,0.28165 -0.94737,0.64012 l 0,3.91752 z"
         style="font-style:normal;font-variant:normal;font-weight:normal;font-stretch:normal;font-size:25.60472488px;font-family:'SerifGothic LT Heavy';-inkscape-font-specification:'SerifGothic LT Heavy, ';fill:#4d4d4d;fill-opacity:1"
         id="path4293" />
      <path
         d="m 173.76304,962.57579 q -0.33286,0.66573 -0.51209,1.10101 -0.15363,0.43528 -0.15363,0.71693 0,0.20484 0.12802,0.35846 0.15363,0.17924 0.30726,0.33287 l -5.30018,0 q 0.35847,-0.38407 0.69133,-0.92177 0.33286,-0.5377 0.61451,-1.0754 l 2.84213,-5.65865 -3.99434,-7.96307 q -0.30726,-0.64011 -0.69133,-1.20342 -0.38407,-0.5633 -0.61451,-0.84495 l 5.58183,0 q -0.15363,0.15362 -0.30726,0.33286 -0.12802,0.15363 -0.12802,0.35846 0,0.23045 0.0768,0.43528 0.10242,0.17924 0.25605,0.58891 l 1.92035,4.73688 0.0512,0 1.84354,-4.68567 q 0.15363,-0.38407 0.20484,-0.66572 0.0768,-0.28165 0.0768,-0.40968 0,-0.20483 -0.15363,-0.35846 -0.12803,-0.17924 -0.28165,-0.33286 l 5.27457,0 q -0.40968,0.46088 -0.71693,0.99858 -0.30726,0.5377 -0.66573,1.22903 l -6.34997,12.93038 z"
         style="font-style:normal;font-variant:normal;font-weight:normal;font-stretch:normal;font-size:25.60472488px;font-family:'SerifGothic LT Heavy';-inkscape-font-specification:'SerifGothic LT Heavy, ';fill:#4d4d4d;fill-opacity:1"
         id="path4295" />
      <path
         d="m 184.56823,952.35951 q -1.07539,0 -1.74112,-0.69133 -0.66572,-0.69133 -0.66572,-1.68991 0,-0.99859 0.66572,-1.68991 0.66573,-0.69133 1.74112,-0.69133 1.0754,0 1.74112,0.69133 0.66573,0.69132 0.66573,1.68991 0,0.99858 -0.66573,1.68991 -0.66572,0.69133 -1.74112,0.69133 z m 0,7.88625 q -1.07539,0 -1.74112,-0.69132 -0.66572,-0.69133 -0.66572,-1.68992 0,-0.99858 0.66572,-1.68991 0.66573,-0.69133 1.74112,-0.69133 1.0754,0 1.74112,0.69133 0.66573,0.69133 0.66573,1.68991 0,0.99859 -0.66573,1.68992 -0.66572,0.69132 -1.74112,0.69132 z"
         style="font-style:normal;font-variant:normal;font-weight:normal;font-stretch:normal;font-size:25.60472488px;font-family:'SerifGothic LT Heavy';-inkscape-font-specification:'SerifGothic LT Heavy, ';fill:#4d4d4d;fill-opacity:1"
         id="path4297" />
    </g>
  </g>
</svg>
