<?xml version="1.0" encoding="UTF-8" standalone="no"?>
<svg
   xmlns:dc="http://purl.org/dc/elements/1.1/"
   xmlns:cc="http://creativecommons.org/ns#"
   xmlns:rdf="http://www.w3.org/1999/02/22-rdf-syntax-ns#"
   xmlns:svg="http://www.w3.org/2000/svg"
   xmlns="http://www.w3.org/2000/svg"
   xmlns:sodipodi="http://sodipodi.sourceforge.net/DTD/sodipodi-0.dtd"
   xmlns:inkscape="http://www.inkscape.org/namespaces/inkscape"
   width="853.91278"
   height="192.68401"
   id="svg2"
   version="1.1"
   inkscape:version="0.48.4 r9939"
   sodipodi:docname="ak47.svg">
  <metadata
     id="metadata18">
    <rdf:RDF>
      <cc:Work
         rdf:about="">
        <dc:format>image/svg+xml</dc:format>
        <dc:type
           rdf:resource="http://purl.org/dc/dcmitype/StillImage" />
      </cc:Work>
    </rdf:RDF>
  </metadata>
  <defs
     id="defs16" />
  <sodipodi:namedview
     pagecolor="#ffffff"
     bordercolor="#666666"
     borderopacity="1"
     objecttolerance="10"
     gridtolerance="10"
     guidetolerance="10"
     inkscape:pageopacity="0"
     inkscape:pageshadow="2"
     inkscape:window-width="1366"
     inkscape:window-height="744"
     id="namedview14"
     showgrid="false"
     fit-margin-top="0"
     fit-margin-left="0"
     fit-margin-right="0"
     fit-margin-bottom="0"
     inkscape:zoom="0.67617086"
     inkscape:cx="428.09873"
     inkscape:cy="83.138892"
     inkscape:window-x="0"
     inkscape:window-y="0"
     inkscape:window-maximized="0"
     inkscape:current-layer="svg2" />
  <title
     id="title4">Ak-47 one gun</title>
  <g
     id="g6"
     transform="translate(8.5243599,-116)">
    <title
       id="title8">Layer 1</title>
    <switch
       id="switch10">
      <g
         id="svg_1">
        <path
           id="svg_2"
           d="m 670.78601,156.959 c -4.64502,-0.705 -11.11902,-3.942 -13.08398,-9.14999 l -7.60602,0 0,1.26699 -1.54797,0 0,-1.97 -2.81501,0 0,-1.97101 -2.25201,0 0,-26.74199 c 0,-1.119 -0.90698,-2.026 -2.026,-2.026 l -8.896,0 c -1.11902,0 -2.026,0.907 -2.026,2.026 l 0,6.475 -10.69702,22.238 0,1.97 -46.16602,0 0,-1.688 c -13.794,0 -19.70501,-10.69701 -23.92797,-18.57899 l -49.262,0 0,-1.40901 -10.979,0 0,-0.22601 c 0,-1.11899 -0.90698,-2.02599 -2.026,-2.02599 l -1.73999,0 c -0.26401,-0.813 -1.01801,-1.405 -1.91901,-1.405 l -72.233,-2.254 c -0.677,0 -1.271,0.334 -1.63998,0.844 l -2.58201,0 c -1.12002,0 -2.026,0.907 -2.026,2.027 l 0,0.788 -4.22302,0 0,-4.729 c 0,-1.119 -0.90698,-2.026 -2.026,-2.026 l -10.26199,0 c -0.19501,-0.963 -1.04801,-1.688 -2.068,-1.688 -0.91699,0 -1.69,0.589 -1.98098,1.406 l -25.46601,0 c -0.16,-0.229 -0.41201,-0.388 -0.71301,-0.388 l -3.88901,0 c -0.30099,0 -0.552,0.159 -0.71298,0.388 l -1.30002,0 0,-0.704 -2.11099,-1.407 0,3.097 3.237,0 0,1.433 c 0,0.489 0.397,0.886 0.88699,0.886 l 0.883,0 0,0.654 c 0,0.182 0.14603,0.328 0.32602,0.328 l 0.116,0 c -0.64902,0.117 -1.056,0.396 -1.30201,0.775 -0.39599,9.9e-4 -0.78299,0.004 -1.19101,0.004 l 0,5.349 -157.07499,0 c 0,0 -1.98401,-0.606 -3.65902,0.28101 -1.67498,0.88899 -2.81498,1.97099 -2.81498,1.97099 l -6.44501,7.319 -3.686,0 -3.381,4.785 2.853,0 -5.45299,6.192 -2.75,0 0.092,0.877 c -7.393,0.49401 -42.23401,7.04799 -47.381,8.131 -5.34899,1.12601 -10.416,1.688 -14.638,0 -4.223,-1.68899 -10.133997,-4.78599 -18.859995,-3.94101 -8.725998,0.84498 -94.022003,10.13501 -95.148004,12.66901 -0.145,0.32499 -0.303,0.60699 -0.467,0.86399 -0.247,-0.722 -0.744,-1.24299 -1.503,-0.86399 -1.284,0.643 -2.534,1.68899 -1.126,8.727 1.407,7.03799 7.6,54.89299 7.882,59.67799 0.281,4.78501 3.096,5.06601 4.222,4.22301 -0.032,-0.2 -0.064,-0.41 -0.097,-0.61799 1.052,0.40399 2.746,0.36698 5.446,-0.79001 5.912,-2.53299 158.766999,-54.61 164.957999,-56.58001 l 6.192,-0.25199 0,3.01001 c 0,0.76199 0.42599,1.41799 1.04799,1.76399 l -0.20301,-0.018 c -0.84498,2.53299 -1.40799,5.34799 1.12601,9.00799 2.53301,3.659 1.12601,9.57 -0.563,14.91899 -1.68801,5.34902 -7.318,21.112 -10.97901,30.40101 -3.65899,9.29 0.28202,12.66799 3.37799,15.201 3.097,2.53299 14.07502,4.22299 20.26902,2.815 6.192,-1.40799 6.192,-5.631 6.192,-6.757 0,-1.12601 0,-4.222 0.84498,-7.03701 0.845,-2.81399 12.66703,-30.11999 14.91902,-35.46899 2.172,-5.159 4.86998,-7.96001 7.83699,-10.425 3.41301,5.412 6.754,8.154 11.02301,8.17199 4.256,0 14.381,-0.27999 20.83001,-0.27999 5.75198,0.004 9.31698,-3.487 11.23498,-7.319 l 5.431,0 0.789,1.97099 -0.845,7.319 1.40701,0.56201 2.70899,-9.853 0.33102,0 c 1.12,0 2.02698,-0.906 2.02698,-2.026 l 0,-12.24901 2.621,0 0,3.94001 4.92102,0 c 6.551,40.418 28.879,87.28599 82.53598,119.83702 l 2.79901,-4.41202 15.78199,-24.88199 5.34701,-8.427 c -43.43101,-29.674 -58.12202,-64.462 -62.79301,-95.889 l 37.177,-1.517 0,-0.047 c 0,1.119 0.90699,2.026 2.026,2.026 l 5.57401,0 0,0.79001 c 0,1.119 0.90698,2.026 2.026,2.026 0,0 5.01099,-0.001 8.056,-0.601 3.04498,-0.60101 12.43799,-3.62301 14.97098,-4.18701 2.53302,-0.56199 7.60101,-0.84399 11.823,-0.84399 4.22198,0 70.88101,-2.25901 70.88101,-2.25901 0.79098,0 1.46899,-0.458 1.80301,-1.119 l 2.41998,0 c 0.543,0 1.03201,-0.21599 1.396,-0.563 l 2.03701,0 0,-3.379 56.862,0 0,1.408 5.06702,0 0,-1.408 81.35297,0 0,1.127 5.63,0 0,-3.991 c 0.396,0.325 0.67902,0.72701 0.78699,1.177 l 2.591,0 0,-3.378 5.349,0 0,-1.689 1.54804,0 0,1.40702 20.83099,0 0,-3.10001 c -0.047,0.002 -0.094,0.013 -0.14099,0.006 z M 626.31,140.97299 c 0,-1.11999 0.84503,-6.53499 6.53497,-6.53499 l 6.07605,0 c 1.11896,0 2.026,0.907 2.026,2.027 l 0,5.518 c 0,1.119 -0.90704,2.026 -2.026,2.026 l -10.58502,0 c -1.11902,0 -2.026,-0.90699 -2.026,-2.026 l 0,-1.01001 0,0 z m -80.78998,0.78401 0,7.318 -48.13599,0 0,-4.504 -7.88201,0 0,-2.53301 10.979,0 0,-0.56199 30.96503,0 0,0.281 14.07397,0 0,0 z m -25.617,-11.541 c 0.77697,0 1.40802,0.62999 1.40802,1.407 0,0.77701 -0.63105,1.407 -1.40802,1.407 -0.77698,0 -1.40699,-0.63001 -1.40699,-1.407 0,-0.77699 0.62995,-1.407 1.40699,-1.407 z m -6.19202,0 c 0.77698,0 1.40698,0.62999 1.40698,1.407 0,0.77701 -0.63,1.407 -1.40698,1.407 -0.77698,0 -1.40698,-0.63001 -1.40698,-1.407 0,-0.77699 0.63,-1.407 1.40698,-1.407 z m -6.19299,0 c 0.77697,0 1.40698,0.62999 1.40698,1.407 0,0.77701 -0.63001,1.407 -1.40698,1.407 -0.77698,0 -1.40699,-0.63001 -1.40699,-1.407 0,-0.77699 0.62897,-1.407 1.40699,-1.407 z m -149.99701,-7.818 0.10602,0 c 0.181,0 0.32797,-0.146 0.32797,-0.328 l 0,-0.654 0.64102,0 c 0.48898,0 0.88699,-0.396 0.88699,-0.886 l 0,-1.433 19.37799,0 c -6.27899,2.989 -11.79498,3.83 -20.07199,4.025 -0.251,-0.353 -0.64801,-0.612 -1.268,-0.724 z m -101.099,81.85 c -6.49799,0 -16.64099,0.28099 -20.83,0.28099 -3.17099,0.019 -5.969,-2.05699 -9.325,-7.46599 1.72,-1.85099 1.724,-3.199 1.724,-4.35499 0,-1.40801 -2.252,-2.815 -2.252,-2.815 1.11999,0 2.06399,-0.375 2.158,-1.267 l 0.063,-6.68401 c 1.446,0.97301 2.978,1.68401 3.68999,2.03999 1.688,0.84501 3.378,1.12601 4.50401,6.19202 1.12599,5.06699 6.756,8.72699 11.25999,9.853 2.473,0.61798 3.09699,-0.845 0.56202,-1.40701 -5.52301,-1.228 -8.72702,-6.756 -9.00802,-8.72699 -0.28099,-1.971 0.56301,-6.75602 3.378,-9.853 l 5.34901,-0.28101 0.49399,-1.31601 17.24099,-0.70399 0,19.417 c 0,0.34 0.091,0.655 0.23902,0.93601 -1.64002,3.35098 -4.49899,6.15298 -9.24701,6.15599 z m 219.56799,-59.73199 c 0,1.11898 -0.90701,2.02598 -2.026,2.02598 l -19.03,0 c -1.11899,0 -2.026,-0.907 -2.026,-2.02598 l 0,-0.78701 -14.35599,0 0,0.78701 c 0,1.11898 -0.90701,2.02598 -2.026,2.02598 l -19.02902,0 c -1.11899,0 -2.026,-0.907 -2.026,-2.02598 l 0,-0.78701 -2.25199,0 0,-2.253 2.25199,0 0,-1.07 c 0,-1.119 0.90701,-2.026 2.026,-2.026 l 19.02902,0 c 1.11899,0 2.026,0.907 2.026,2.026 l 0,1.07 14.35599,0 0,-1.07 c 0,-1.119 0.90701,-2.026 2.026,-2.026 l 19.03,0 c 1.11899,0 2.026,0.907 2.026,2.026 l 0,1.07 6.47501,0 0,2.253 -6.47501,0 0,0.78701 0,0 z m 14.91901,18.06999 0,-1.68801 6.475,0 0,-2.252 48.13602,0 0,3.37801 2.25195,0 0,0.562 -56.86297,0 0,0 z m 139.90399,-2.25 0,2.25 -77.97498,0 0,-0.562 3.09699,0 0,-1.126 17.73401,0 0,-2.252 46.16498,0 0,1.68899 10.979,0 0,0.001 z"
           inkscape:connector-curvature="0"
           style="fill:#000000" />
      </g>
    </switch>
  </g>
  <text
     xml:space="preserve"
     style="font-size:40px;font-style:normal;font-variant:normal;font-weight:800;font-stretch:normal;line-height:125%;letter-spacing:0px;word-spacing:0px;fill:#000000;fill-opacity:1;stroke:none;font-family:Helvetica Inserat LT Std;-inkscape-font-specification:Helvetica Inserat LT Std Ultra-Bold"
     x="706.57275"
     y="192.66953"
     id="text2995"
     sodipodi:linespacing="125%"><tspan
       sodipodi:role="line"
       id="tspan2997"
       x="706.57275"
       y="192.66953"
       style="font-size:265px;font-style:normal;font-variant:normal;font-weight:bold;font-stretch:normal;font-family:Helvetica LT Std;-inkscape-font-specification:Helvetica LT Std Bold">?</tspan></text>
</svg>
