<?xml version="1.0" encoding="UTF-8" standalone="no"?>
<!-- Created with Inkscape (http://www.inkscape.org/) -->

<svg
   xmlns:dc="http://purl.org/dc/elements/1.1/"
   xmlns:cc="http://creativecommons.org/ns#"
   xmlns:rdf="http://www.w3.org/1999/02/22-rdf-syntax-ns#"
   xmlns:svg="http://www.w3.org/2000/svg"
   xmlns="http://www.w3.org/2000/svg"
   xmlns:sodipodi="http://sodipodi.sourceforge.net/DTD/sodipodi-0.dtd"
   xmlns:inkscape="http://www.inkscape.org/namespaces/inkscape"
   width="670"
   height="350"
   id="svg2"
   version="1.1"
   inkscape:version="0.48.4 r9939"
   sodipodi:docname="3.svg">
  <defs
     id="defs4" />
  <sodipodi:namedview
     id="base"
     pagecolor="#cc0000"
     bordercolor="#666666"
     borderopacity="1.0"
     inkscape:pageopacity="1"
     inkscape:pageshadow="2"
     inkscape:zoom="0.98994949"
     inkscape:cx="217.62331"
     inkscape:cy="235.40941"
     inkscape:document-units="px"
     inkscape:current-layer="layer1"
     showgrid="false"
     inkscape:snap-grids="true"
     inkscape:snap-object-midpoints="false"
     inkscape:window-width="1920"
     inkscape:window-height="1017"
     inkscape:window-x="-8"
     inkscape:window-y="-8"
     inkscape:window-maximized="1" />
  <metadata
     id="metadata7">
    <rdf:RDF>
      <cc:Work
         rdf:about="">
        <dc:format>image/svg+xml</dc:format>
        <dc:type
           rdf:resource="http://purl.org/dc/dcmitype/StillImage" />
        <dc:title></dc:title>
      </cc:Work>
    </rdf:RDF>
  </metadata>
  <g
     inkscape:label="Layer 1"
     inkscape:groupmode="layer"
     id="layer1"
     transform="translate(0,-702.36218)">
    <text
       xml:space="preserve"
       style="font-size:36px;font-style:normal;font-variant:normal;font-weight:900;font-stretch:normal;text-align:center;line-height:125%;letter-spacing:0px;word-spacing:0px;text-anchor:middle;fill:#000000;fill-opacity:1;stroke:none;font-family:HelveticaNeueLT Com 95 Blk;-inkscape-font-specification:HelveticaNeueLT Com 95 Blk Heavy"
       x="334.88647"
       y="747.16534"
       id="text3026"
       sodipodi:linespacing="125%"><tspan
         sodipodi:role="line"
         x="334.88647"
         y="747.16534"
         style="font-size:36px;font-style:normal;font-variant:normal;font-weight:900;font-stretch:normal;text-align:center;text-anchor:middle;font-family:HelveticaNeueLT Com 95 Blk;-inkscape-font-specification:HelveticaNeueLT Com 95 Blk Heavy"
         id="tspan3019">DESTROY EXPLOITER NATIONS.</tspan><tspan
         sodipodi:role="line"
         x="334.88647"
         y="792.16534"
         style="font-size:36px;font-style:normal;font-variant:normal;font-weight:900;font-stretch:normal;text-align:center;text-anchor:middle;font-family:HelveticaNeueLT Com 95 Blk;-inkscape-font-specification:HelveticaNeueLT Com 95 Blk Heavy"
         id="tspan3021">END CAPITALISM-IMPERIALISM.</tspan><tspan
         sodipodi:role="line"
         x="340.89819"
         y="837.16534"
         style="font-size:36px;font-style:normal;font-variant:normal;font-weight:900;font-stretch:normal;text-align:center;text-anchor:middle;fill:#000000;font-family:HelveticaNeueLT Com 95 Blk;-inkscape-font-specification:HelveticaNeueLT Com 95 Blk Heavy"
         id="tspan3041">END OPPRESSION. </tspan></text>
    <rect
       style="fill:#000000;fill-opacity:0"
       x="352.69302"
       y="708.57513"
       width="81.79174"
       height="81.79174"
       id="rest" />
    <path
       id="path3092"
       d="m 334.99526,856.31388 c 11.65222,4.1508 22.43735,10.69625 31.5344,19.0737 8.72569,8.13165 16.12934,18.09344 19.65293,29.60347 2.38822,7.40121 1.89681,15.39905 0.3181,22.91269 -1.57704,6.99943 -4.65671,13.67145 -9.1411,19.28626 5.086,4.97275 10.12327,9.9952 15.22247,14.95477 -0.6791,2.54089 -1.71983,5.13765 -3.80913,6.85055 -1.74699,1.50792 -3.98361,2.23702 -6.18469,2.78518 -4.97986,-5.17382 -9.98497,-10.32172 -14.96762,-15.49286 -6.20676,4.23999 -13.69684,6.47513 -21.17639,6.80556 -9.42068,0.41631 -18.83796,-2.62027 -26.52454,-8.01423 -4.14491,-2.8487 -7.88094,-6.25482 -11.30826,-9.92589 -0.587,0.57747 -1.22768,1.09561 -1.88643,1.58907 0.16336,1.23192 0.34035,2.46223 0.51022,3.69442 -1.28628,0.0739 -2.57045,0.38851 -3.65124,1.11325 -3.33465,2.11336 -5.65034,5.39395 -8.01722,8.47375 -2.93498,3.81023 -5.57292,8.03953 -9.66314,10.73838 -2.47874,1.53125 -6.14658,0.88403 -7.66459,-1.68974 -1.58768,-2.52522 -0.67181,-5.78453 1.03825,-7.99971 4.1795,-6.14275 11.64178,-8.7681 16.31375,-14.42746 1.21514,-1.52047 2.13404,-3.28282 2.58989,-5.17996 1.1933,0.0766 2.38672,0.15376 3.58043,0.23154 1.01106,-1.0255 2.02706,-2.04574 3.03426,-3.07454 1.12298,-0.0294 2.26743,0.091 3.37616,-0.12552 1.15734,-1.02078 2.08,-2.27577 3.1252,-3.4064 1.14484,0.32072 1.79541,1.3946 2.62391,2.16147 5.12082,4.66379 10.97674,8.72819 17.65108,10.80084 8.53486,2.73421 18.04343,1.86551 26.04942,-2.11292 -16.03585,-16.51016 -32.01803,-33.07352 -48.03079,-49.60651 -3.59093,3.78085 -7.16787,7.5762 -10.81003,11.30777 -4.44812,-4.53773 -8.93964,-9.0326 -13.4103,-13.54802 8.42671,-8.4351 16.94767,-16.7755 25.42084,-25.16392 7.32549,1.99429 14.64158,4.02363 21.97399,5.99411 -5.01059,4.54894 -10.10397,9.00556 -15.13208,13.53498 16.70796,16.38003 33.33324,32.84655 50.06798,49.20036 4.03983,-4.9152 6.31341,-11.17394 6.62271,-17.51036 0.56987,-8.3844 -1.37025,-16.72505 -4.13398,-24.58999 -3.90673,-10.37958 -11.37589,-18.92479 -19.49393,-26.27549 -5.07387,-4.50985 -10.30306,-8.85133 -15.70053,-12.9686 z m 0,0"
       inkscape:connector-curvature="0"
       style="fill:#ffd600" />
    <text
       xml:space="preserve"
       style="font-size:32px;font-style:normal;font-variant:normal;font-weight:900;font-stretch:normal;line-height:125%;letter-spacing:0px;word-spacing:0px;fill:#000000;fill-opacity:1;stroke:none;font-family:HelveticaNeueLT Com 95 Blk;-inkscape-font-specification:HelveticaNeueLT Com 95 Blk Heavy"
       x="48.554688"
       y="1027.9104"
       id="text3076"
       sodipodi:linespacing="125%"><tspan
         sodipodi:role="line"
         id="tspan3078"
         x="48.554688"
         y="1027.9104"
         style="font-size:40px">LEARN TO <tspan
   style="font-size:40px;font-style:normal;font-variant:normal;font-weight:normal;font-stretch:normal;fill:#ffd600;font-family:Helvetica LT Std;-inkscape-font-specification:Helvetica LT Std"
   id="tspan3084">LOVE</tspan> YOURSELF</tspan></text>
  </g>
</svg>
