<?xml version="1.0" encoding="UTF-8" standalone="no"?>
<svg
   xmlns:dc="http://purl.org/dc/elements/1.1/"
   xmlns:cc="http://creativecommons.org/ns#"
   xmlns:rdf="http://www.w3.org/1999/02/22-rdf-syntax-ns#"
   xmlns:svg="http://www.w3.org/2000/svg"
   xmlns="http://www.w3.org/2000/svg"
   xmlns:sodipodi="http://sodipodi.sourceforge.net/DTD/sodipodi-0.dtd"
   xmlns:inkscape="http://www.inkscape.org/namespaces/inkscape"
   width="670"
   height="330"
   viewBox="0 0 18908.889 9313.3332"
   version="1.1"
   xml:space="preserve"
   id="svg2"
   inkscape:version="0.48.4 r9939"
   sodipodi:docname="british empires is something to be.svg"
   style="stroke-width:28.22200012;stroke-linejoin:round"><metadata
     id="metadata46"><rdf:RDF><cc:Work
         rdf:about=""><dc:format>image/svg+xml</dc:format><dc:type
           rdf:resource="http://purl.org/dc/dcmitype/StillImage" /><dc:title></dc:title></cc:Work></rdf:RDF></metadata><defs
     id="defs44" /><sodipodi:namedview
     pagecolor="#ffffff"
     bordercolor="#666666"
     borderopacity="1"
     objecttolerance="10"
     gridtolerance="10"
     guidetolerance="10"
     inkscape:pageopacity="0"
     inkscape:pageshadow="2"
     inkscape:window-width="1366"
     inkscape:window-height="744"
     id="namedview42"
     showgrid="false"
     inkscape:zoom="1.0795"
     inkscape:cx="340.32952"
     inkscape:cy="225.3347"
     inkscape:window-x="0"
     inkscape:window-y="0"
     inkscape:window-maximized="0"
     inkscape:current-layer="svg2" /><text
     xml:space="preserve"
     style="font-size:7478.88867188px;font-style:normal;font-variant:normal;font-weight:800;font-stretch:normal;line-height:125%;letter-spacing:0px;word-spacing:0px;fill:#000000;fill-opacity:1;stroke:none;font-family:Helvetica Inserat LT Std;-inkscape-font-specification:Helvetica Inserat LT Std Ultra-Bold"
     x="4698.168"
     y="928.95312"
     id="text3023"
     sodipodi:linespacing="125%"><tspan
       sodipodi:role="line"
       x="4698.168"
       y="928.95312"
       style="font-size:620.88891602px;font-style:normal;font-variant:normal;font-weight:bold;font-stretch:normal;text-align:center;text-anchor:middle;font-family:Helvetica LT Std;-inkscape-font-specification:Helvetica LT Std Bold"
       id="tspan3185">The British Empire is</tspan><tspan
       sodipodi:role="line"
       x="4698.168"
       y="1705.0643"
       style="font-size:620.88891602px;font-style:normal;font-variant:normal;font-weight:bold;font-stretch:normal;text-align:center;text-anchor:middle;font-family:Helvetica LT Std;-inkscape-font-specification:Helvetica LT Std Bold"
       id="tspan3189">something to be...</tspan></text>
<g
     id="g3319"
     transform="translate(7.7687439e-6,-174.2722)"><g
       transform="matrix(0.76344547,0,0,0.76344547,2741.6154,-647.81478)"
       id="g3191"><path
         d="m 918.72226,4495.3693 c -428.0002,0 -852.000105,67 -1259.0001,199 -405.9999,132 -788.99996,327 -1134.99986,578 -346.0002,251 -650.0001,555 -901.0001,901 -251,346 -446,728.9999 -577.9999,1135 -132.0001,407 -199,830.9999 -199,1257 0,427.9999 66.9999,851.9998 199,1258.9998 131.9999,405.9999 326.9999,788.9999 577.9999,1134.9999 251,346 554.9999,650 901.0001,901 345.9999,251 728.99996,446 1134.99986,578 406.999995,132 830.9999,200 1257.9999,200 428.00014,0 852.00014,-68 1259.00014,-200 276.0001,-90 543.0001,-210 795,-357 L 918.72226,8566.3692 l 0,0 0,0 0,0 0,0 0,0 0,0 0,0 0,0 0,0 0,0 0,0 0,0 0,-4070.9999 z"
         id="path6"
         inkscape:connector-curvature="0"
         style="fill:#004586;stroke:none" /><path
         d="m 2971.7222,12081.369 c 116.0001,-68 230.0001,-142 338.9999,-221 346,-251 650.0001,-555 901.0001,-901 251.0001,-346 446.0001,-729 578.0001,-1134.9999 132,-407 200,-830.9999 200,-1258.9998 0,-190.0002 -14,-378 -40,-567 l -4031.00004,567.9999 0,0 0,0 0,0 0,0 0,0 2052.99994,3514.9998 z"
         id="path8"
         style="fill:#e6e6e6;stroke:none"
         inkscape:connector-curvature="0" /><path
         d="m 4949.7223,7998.3693 c -33,-234 -87,-465 -160,-690 -132,-406.0001 -327,-789 -578.0001,-1135 -251,-346 -555.0001,-650 -901.0001,-901 -345.9999,-251 -729,-446 -1133.9999,-578 -407,-132 -831,-199 -1257.99994,-199 l 0,4070.9999 0,0 0,0 0,0 0,0 0,0 4031.00004,-567.9999 z"
         id="path10"
         style="fill:#b3b3b3;stroke:none"
         inkscape:connector-curvature="0" /></g><g
       transform="matrix(1.0901223,0,0,1.0901223,-534.28987,-212.46702)"
       id="g3201"><path
         d="m 7026.8176,5275.3891 -89.3739,0 0,-177.905 177.9047,0 0,177.905 -88.5308,0 z"
         id="path12"
         inkscape:connector-curvature="0"
         style="fill:#004586;stroke:none" /><path
         d="m 7026.8176,5694.4345 -89.3739,0 0,-177.0623 177.9047,0 0,177.0623 -88.5308,0 z"
         id="path14"
         style="fill:#e6e6e6;stroke:none"
         inkscape:connector-curvature="0" /><path
         d="m 7026.8176,6114.3226 -89.3739,0 0,-177.905 177.9047,0 0,177.905 -88.5308,0 z"
         id="path16"
         style="fill:#b3b3b3;stroke:none"
         inkscape:connector-curvature="0" /><text
         y="1812.5729"
         style="font-size:10.1177969px;stroke-width:28.22200012;stroke-linejoin:round"
         class="TextShape"
         id="text18"
         x="-4451.8237"><tspan
           class="TextParagraph"
           font-size="353px"
           font-weight="400"
           id="tspan20"
           style="font-size:297.63189697px;font-weight:400;font-family:'Liberation Sans, sans-serif'"><tspan
             class="TextPosition"
             x="7199.6636"
             y="5287.1924"
             id="tspan22"><tspan
               id="tspan24"
               style="fill:#000000;stroke:none">Proud of</tspan></tspan></tspan></text>
<text
         y="1812.5729"
         style="font-size:10.1177969px;stroke-width:28.22200012;stroke-linejoin:round"
         class="TextShape"
         id="text26"
         x="-4451.8237"><tspan
           class="TextParagraph"
           font-size="353px"
           font-weight="400"
           id="tspan28"
           style="font-size:297.63189697px;font-weight:400;font-family:'Liberation Sans, sans-serif'"><tspan
             class="TextPosition"
             x="7199.6636"
             y="5706.2383"
             id="tspan30"><tspan
               id="tspan32"
               style="fill:#000000;stroke:none">Ashamed of</tspan></tspan></tspan></text>
<text
         y="1812.5729"
         style="font-size:10.1177969px;stroke-width:28.22200012;stroke-linejoin:round"
         class="TextShape"
         id="text34"
         x="-4451.8237"><tspan
           class="TextParagraph"
           font-size="353px"
           font-weight="400"
           id="tspan36"
           style="font-size:297.63189697px;font-weight:400;font-family:'Liberation Sans, sans-serif'"><tspan
             class="TextPosition"
             x="7199.6636"
             y="6126.1274"
             id="tspan38"><tspan
               id="tspan40"
               style="fill:#000000;stroke:none">Don't know</tspan></tspan></tspan></text>
</g></g><g
     id="g3341"
     transform="translate(7.7687439e-6,-174.2722)"><g
       transform="matrix(0.76441636,0,0,0.76441636,1017.6009,1075.4567)"
       id="g3196"><path
         d="m 15808.5,2235.2973 c -428,0 -852,67 -1259,199 -406,132 -789,327 -1135,578 -346,251 -650,555 -901,901 -251,346 -446,729 -578,1135 -132,407 -199,831 -199,1257 0,428 67,852 199,1259 114,353 277,688 482,997 l 3391,-2255 0,0 0,0 0,0 0,0 0,0 0,0 0,0 0,-4071 z"
         id="path6-9"
         inkscape:connector-curvature="0"
         style="fill:#004586;stroke:none" /><path
         d="m 12417.5,8561.2973 c 31,47 63,93 96,138 251,346 555,650 901,901 346,251 729,445.9997 1135,577.9997 407,132 831,200 1258,200 428,0 852,-68 1258,-200 406,-132 789,-326.9997 1135,-577.9997 346,-251 650,-555 901,-901 251,-346 446,-729 578,-1135 132,-407 200,-831 200,-1258 0,-409 -62,-817 -184,-1209 l -3887,1209 0,0 0,0 0,0 0,0 0,0 0,0 0,0 0,0 0,0 0,0 -3391,2255 z"
         id="path8-7"
         inkscape:connector-curvature="0"
         style="fill:#e6e6e6;stroke:none" /><path
         d="m 19695.5,5097.2973 c -5,-16 -10,-32 -16,-49 -132,-406 -327,-789 -578,-1135 -251,-346 -555,-650 -901,-901 -346,-251 -729,-446 -1135,-578 -406,-132 -830,-199 -1257,-199 l 0,4071 0,0 0,0 0,0 0,0 0,0 3887,-1209 z"
         id="path10-1"
         inkscape:connector-curvature="0"
         style="fill:#b3b3b3;stroke:none" /></g><g
       transform="matrix(1.0901223,0,0,1.0901223,-1835.7459,-166.41682)"
       id="g3218"><path
         style="fill:#004586;stroke:none"
         inkscape:connector-curvature="0"
         d="m 17088.738,5231.9054 -89.215,0 0,-177.5908 177.59,0 0,177.5908 -88.375,0 z"
         id="path12-8" /><path
         style="fill:#e6e6e6;stroke:none"
         inkscape:connector-curvature="0"
         d="m 17088.738,5650.2109 -89.215,0 0,-176.7494 177.59,0 0,176.7494 -88.375,0 z"
         id="path14-8" /><path
         style="fill:#b3b3b3;stroke:none"
         inkscape:connector-curvature="0"
         d="m 17088.738,6069.3577 -89.215,0 0,-177.5908 177.59,0 0,177.5908 -88.375,0 z"
         id="path16-5" /><text
         style="font-size:10.09992027px"
         y="1775.2072"
         x="5474.6704"
         class="TextShape"
         id="text18-9"><tspan
           style="font-size:297.10604858px;font-weight:400;font-family:'Liberation Sans, sans-serif'"
           class="TextParagraph"
           font-size="353px"
           font-weight="400"
           id="tspan20-8"><tspan
             class="TextPosition"
             x="17261.275"
             y="5243.6895"
             id="tspan22-8"><tspan
               style="fill:#000000;stroke:none"
               id="tspan24-0">Yes</tspan></tspan></tspan></text>
<text
         style="font-size:10.09992027px"
         y="1775.2072"
         x="5474.6704"
         class="TextShape"
         id="text26-2"><tspan
           style="font-size:297.10604858px;font-weight:400;font-family:'Liberation Sans, sans-serif'"
           class="TextParagraph"
           font-size="353px"
           font-weight="400"
           id="tspan28-6"><tspan
             class="TextPosition"
             x="17261.275"
             y="5661.9937"
             id="tspan30-0"><tspan
               style="fill:#000000;stroke:none"
               id="tspan32-0">No</tspan></tspan></tspan></text>
<text
         style="font-size:10.09992027px"
         y="1775.2072"
         x="5474.6704"
         class="TextShape"
         id="text34-3"><tspan
           style="font-size:297.10604858px;font-weight:400;font-family:'Liberation Sans, sans-serif'"
           class="TextParagraph"
           font-size="353px"
           font-weight="400"
           id="tspan36-8"><tspan
             class="TextPosition"
             x="17261.275"
             y="6081.1401"
             id="tspan38-7"><tspan
               style="fill:#000000;stroke:none"
               id="tspan40-3">Don't know</tspan></tspan></tspan></text>
</g></g><text
     xml:space="preserve"
     style="font-size:7478.88916016px;font-style:normal;font-variant:normal;font-weight:800;font-stretch:normal;line-height:125%;letter-spacing:0px;word-spacing:0px;fill:#000000;fill-opacity:1;stroke:none;font-family:Helvetica Inserat LT Std;-inkscape-font-specification:Helvetica Inserat LT Std Ultra-Bold"
     x="14289.765"
     y="928.95312"
     id="text3023-3"
     sodipodi:linespacing="125%"><tspan
       sodipodi:role="line"
       id="tspan3025-2"
       x="14289.765"
       y="928.95312"
       style="font-size:620.88891602px;font-style:normal;font-variant:normal;font-weight:bold;font-stretch:normal;text-align:center;text-anchor:middle;font-family:Helvetica LT Std;-inkscape-font-specification:Helvetica LT Std Bold">Do you wish Britain</tspan><tspan
       sodipodi:role="line"
       x="14289.765"
       y="1705.0643"
       style="font-size:620.88891602px;font-style:normal;font-variant:normal;font-weight:bold;font-stretch:normal;text-align:center;text-anchor:middle;font-family:Helvetica LT Std;-inkscape-font-specification:Helvetica LT Std Bold"
       id="tspan3179">still had an empire?</tspan></text>
</svg>