<?xml version="1.0" encoding="UTF-8" standalone="no"?>
<!-- Created with Inkscape (http://www.inkscape.org/) -->

<svg
   xmlns:dc="http://purl.org/dc/elements/1.1/"
   xmlns:cc="http://creativecommons.org/ns#"
   xmlns:rdf="http://www.w3.org/1999/02/22-rdf-syntax-ns#"
   xmlns:svg="http://www.w3.org/2000/svg"
   xmlns="http://www.w3.org/2000/svg"
   xmlns:sodipodi="http://sodipodi.sourceforge.net/DTD/sodipodi-0.dtd"
   xmlns:inkscape="http://www.inkscape.org/namespaces/inkscape"
   width="937.10291"
   height="438.94287"
   id="svg3990"
   version="1.1"
   inkscape:version="0.48.5 r10040"
   sodipodi:docname="share-of-unpaid.svg"
   inkscape:export-filename="/home/alyx/Dropbox/site_blog/images/2014-09-29-how-much-of-world-labour-is-performed-by-women/unpaid-share/share-of-unpaid.png"
   inkscape:export-xdpi="124.77"
   inkscape:export-ydpi="124.77">
  <defs
     id="defs3992" />
  <sodipodi:namedview
     id="base"
     pagecolor="#ffffff"
     bordercolor="#666666"
     borderopacity="1.0"
     inkscape:pageopacity="0.0"
     inkscape:pageshadow="2"
     inkscape:zoom="0.70710678"
     inkscape:cx="258.56852"
     inkscape:cy="256.47595"
     inkscape:document-units="px"
     inkscape:current-layer="layer1"
     showgrid="false"
     fit-margin-top="0"
     fit-margin-left="0"
     fit-margin-right="0"
     fit-margin-bottom="0"
     inkscape:window-width="1366"
     inkscape:window-height="741"
     inkscape:window-x="0"
     inkscape:window-y="0"
     inkscape:window-maximized="0" />
  <metadata
     id="metadata3995">
    <rdf:RDF>
      <cc:Work
         rdf:about="">
        <dc:format>image/svg+xml</dc:format>
        <dc:type
           rdf:resource="http://purl.org/dc/dcmitype/StillImage" />
        <dc:title></dc:title>
      </cc:Work>
    </rdf:RDF>
  </metadata>
  <g
     inkscape:label="Layer 1"
     inkscape:groupmode="layer"
     id="layer1"
     transform="translate(218.55145,-295.12218)">
    <g
       transform="matrix(0.03543307,0,0,0.03543307,105.54362,381.91535)"
       style="stroke-width:28.22200012;stroke-linejoin:round"
       id="g3049">
      <path
         style="fill:#5599ff;stroke:none"
         inkscape:connector-curvature="0"
         id="path6-4"
         d="m 4072,-5.3829617e-5 c -428,0 -852,66.999999829617 -1259,199.000003829617 -406,132 -789,327 -1135,578 -346,250.99995 -650,554.99995 -901,900.99995 -251,346 -446,729 -578,1135 -132,407 -199,831 -199,1257 0,428 67,852 199,1259 132,406 327,789 578,1135 251,346 555,650 901,901 346,251 729,446 1135,578 407,132 831,200 1258,200 428,0 851,-68 1258,-200 406,-132 789,-327 1135,-578 346,-251 650,-555 901,-901 251,-346 446,-729 578,-1135 132,-407 200,-831 200,-1259 0,-47 -1,-94 -3,-141 l -4068,142 0,0 0,0 0,0 0,0 0,0 0,0 0,0 0,0 0,0 0,0 0,0 0,0 0,0 0,0 0,0 0,0 0,-4070.999953829617 z" />
      <path
         style="fill:#ff5555;stroke:none"
         inkscape:connector-curvature="0"
         id="path8-2"
         d="m 8140,3928.9999 c -13,-378 -79,-754 -197,-1116 -132,-406 -327,-789 -578,-1135 -251,-346 -555,-650 -901,-900.99995 -346,-251 -729,-446 -1135,-578 C 4922,66.999946 4499,-5.3829617e-5 4072,-5.3829617e-5 L 4072,4070.9999 l 0,0 0,0 0,0 0,0 0,0 4068,-142 z" />
      <text
         sodipodi:linespacing="125%"
         id="text3015-9"
         y="3460.8799"
         x="4553.9204"
         style="font-size:1379.32885742px;font-style:normal;font-variant:normal;font-weight:normal;font-stretch:normal;line-height:125%;letter-spacing:0px;word-spacing:0px;fill:#ffd5d5;fill-opacity:1;stroke:none;font-family:Helvetica LT Std;-inkscape-font-specification:Helvetica LT Std"
         xml:space="preserve"><tspan
           style="font-size:2482.79248047px;fill:#ffd5d5"
           id="tspan3019-5"
           y="3460.8799"
           x="4553.9204"
           sodipodi:role="line">♂</tspan></text>
      <text
         sodipodi:linespacing="125%"
         id="text3011-1"
         y="5989.3696"
         x="1756.4196"
         style="font-size:1379.32885742px;font-style:normal;font-variant:normal;font-weight:normal;font-stretch:normal;line-height:125%;letter-spacing:0px;word-spacing:0px;fill:#d5e5ff;fill-opacity:1;stroke:none;font-family:Helvetica LT Std;-inkscape-font-specification:Helvetica LT Std"
         xml:space="preserve"><tspan
           style="font-size:2482.79248047px;fill:#d5e5ff"
           y="5989.3696"
           x="1756.4196"
           id="tspan3013-5"
           sodipodi:role="line">♀</tspan></text>
    </g>
    <g
       transform="matrix(0.03543307,0,0,0.03543307,-218.55145,381.91535)"
       style="stroke-width:28.22200012;stroke-linejoin:round"
       id="g3021">
      <path
         inkscape:connector-curvature="0"
         style="fill:#5599ff;stroke:none"
         id="path6"
         d="m 4072,-5.3829617e-5 c -428,0 -852,66.999999829617 -1259,199.000003829617 -406,132 -789,327 -1135,578 -346,250.99995 -650,554.99995 -901,900.99995 -251,346 -446,729 -578,1135 -132,407 -199,831 -199,1257 0,428 67,852 199,1259 132,406 327,789 578,1135 251,346 555,650 901,901 346,251 729,446 1135,578 407,132 831,200 1258,200 428,0 851,-68 1258,-200 406,-132 789,-327 1135,-578 346,-251 650,-555 901,-901 61,-84 119,-171 173,-259 l -3466,-2134 0,0 0,0 0,0 0,0 0,0 0,0 0,0 0,0 0,0 0,0 0,0 0,0 0,0 0,0 0,-4070.999953829617 z" />
      <path
         inkscape:connector-curvature="0"
         style="fill:#ff5555;stroke:none"
         id="path8"
         d="m 7538,6204.9999 c 170,-275 305,-569 405,-876 132,-407 200,-831 200,-1258 0,-427 -68,-851 -200,-1258 -132,-406 -327,-789 -578,-1135 -251,-346 -555,-650 -901,-900.99995 -346,-251 -729,-446 -1135,-578 C 4922,66.999946 4499,-5.3829617e-5 4072,-5.3829617e-5 l -1,0 L 4072,4070.9999 l 0,0 0,0 0,0 0,0 0,0 0,0 0,0 0,0 3466,2134 z" />
      <text
         sodipodi:linespacing="125%"
         id="text3015-9-8"
         y="3946.3679"
         x="4735.209"
         style="font-size:1379.32897949px;font-style:normal;font-variant:normal;font-weight:normal;font-stretch:normal;line-height:125%;letter-spacing:0px;word-spacing:0px;fill:#ffd5d5;fill-opacity:1;stroke:none;font-family:Helvetica LT Std;-inkscape-font-specification:Helvetica LT Std"
         xml:space="preserve"><tspan
           style="font-size:2482.79248047px;fill:#ffd5d5"
           id="tspan3019-5-0"
           y="3946.3679"
           x="4735.209"
           sodipodi:role="line">♂</tspan></text>
      <text
         sodipodi:linespacing="125%"
         id="text3011-1-0"
         y="5560.3257"
         x="1586.2166"
         style="font-size:1379.32897949px;font-style:normal;font-variant:normal;font-weight:normal;font-stretch:normal;line-height:125%;letter-spacing:0px;word-spacing:0px;fill:#d5e5ff;fill-opacity:1;stroke:none;font-family:Helvetica LT Std;-inkscape-font-specification:Helvetica LT Std"
         xml:space="preserve"><tspan
           style="font-size:2482.79248047px;fill:#d5e5ff"
           y="5560.3257"
           x="1586.2166"
           id="tspan3013-5-9"
           sodipodi:role="line">♀</tspan></text>
    </g>
    <g
       transform="matrix(0.03543307,0,0,0.03543307,430.01996,381.91535)"
       style="stroke-width:28.22200012;stroke-linejoin:round"
       id="g3061">
      <path
         style="fill:#5599ff;stroke:none"
         inkscape:connector-curvature="0"
         id="path6-5"
         d="m 4072,-5.3829617e-5 c -428,0 -852,66.999999829617 -1259,199.000003829617 -406,132 -789,327 -1135,578 -346,250.99995 -650,554.99995 -901,900.99995 -251,346 -446,729 -578,1135 -132,407 -199,831 -199,1257 0,428 67,852 199,1259 132,406 327,789 578,1135 251,346 555,650 901,901 346,251 729,446 1135,578 407,132 831,200 1258,200 428,0 851,-68 1258,-200 406,-132 789,-327 1135,-578 346,-251 650,-555 901,-901 17,-24 34,-48 51,-73 l -3344,-2320 0,0 0,0 0,0 0,0 0,0 0,0 0,0 0,0 0,0 0,0 0,0 0,0 0,0 0,0 0,-4070.999953829617 z" />
      <path
         style="fill:#ff5555;stroke:none"
         inkscape:connector-curvature="0"
         id="path8-6"
         d="m 7416,6390.9999 c 227,-326 404,-684 527,-1062 132,-407 200,-831 200,-1258 0,-427 -68,-851 -200,-1258 -132,-406 -327,-789 -578,-1135 -251,-346 -555,-650 -901,-900.99995 -346,-251 -729,-446 -1135,-578 C 4922,66.999946 4499,-5.3829617e-5 4072,-5.3829617e-5 L 4072,4070.9999 l 0,0 0,0 0,0 0,0 0,0 0,0 0,0 3344,2320 z" />
      <text
         sodipodi:linespacing="125%"
         id="text3015-9-1"
         y="3986.9072"
         x="4666.1079"
         style="font-size:1379.32885742px;font-style:normal;font-variant:normal;font-weight:normal;font-stretch:normal;line-height:125%;letter-spacing:0px;word-spacing:0px;fill:#ffd5d5;fill-opacity:1;stroke:none;font-family:Helvetica LT Std;-inkscape-font-specification:Helvetica LT Std"
         xml:space="preserve"><tspan
           style="font-size:2482.79248047px;fill:#ffd5d5"
           id="tspan3019-5-6"
           y="3986.9072"
           x="4666.1079"
           sodipodi:role="line">♂</tspan></text>
      <text
         sodipodi:linespacing="125%"
         id="text3011-1-3"
         y="5557.7129"
         x="1602.0162"
         style="font-size:1379.32885742px;font-style:normal;font-variant:normal;font-weight:normal;font-stretch:normal;line-height:125%;letter-spacing:0px;word-spacing:0px;fill:#d5e5ff;fill-opacity:1;stroke:none;font-family:Helvetica LT Std;-inkscape-font-specification:Helvetica LT Std"
         xml:space="preserve"><tspan
           style="font-size:2482.79248047px;fill:#d5e5ff"
           y="5557.7129"
           x="1602.0162"
           id="tspan3013-5-00"
           sodipodi:role="line">♀</tspan></text>
    </g>
    <text
       xml:space="preserve"
       style="font-size:40px;font-style:normal;font-variant:normal;font-weight:normal;font-stretch:normal;line-height:125%;letter-spacing:0px;word-spacing:0px;fill:#000000;fill-opacity:1;stroke:none;font-family:Helvetica LT Std;-inkscape-font-specification:Helvetica LT Std"
       x="-74.599144"
       y="725.50507"
       id="text4089"
       sodipodi:linespacing="125%"><tspan
         sodipodi:role="line"
         id="tspan4091"
         x="-74.599144"
         y="725.50507"
         style="font-style:normal;font-variant:normal;font-weight:normal;font-stretch:normal;text-align:center;text-anchor:middle;font-family:Helvetica LT Std;-inkscape-font-specification:Helvetica LT Std">First World</tspan></text>
    <text
       xml:space="preserve"
       style="font-size:40px;font-style:normal;font-variant:normal;font-weight:normal;font-stretch:normal;line-height:125%;letter-spacing:0px;word-spacing:0px;fill:#000000;fill-opacity:1;stroke:none;font-family:Helvetica LT Std;-inkscape-font-specification:Helvetica LT Std"
       x="249.23999"
       y="725.50507"
       id="text4089-8"
       sodipodi:linespacing="125%"><tspan
         sodipodi:role="line"
         id="tspan4091-4"
         x="249.23999"
         y="725.50507"
         style="font-style:normal;font-variant:normal;font-weight:normal;font-stretch:normal;text-align:center;text-anchor:middle;font-family:Helvetica LT Std;-inkscape-font-specification:Helvetica LT Std">Semi-periphery</tspan></text>
    <text
       xml:space="preserve"
       style="font-size:40px;font-style:normal;font-variant:normal;font-weight:normal;font-stretch:normal;line-height:125%;letter-spacing:0px;word-spacing:0px;fill:#000000;fill-opacity:1;stroke:none;font-family:Helvetica LT Std;-inkscape-font-specification:Helvetica LT Std"
       x="575.09229"
       y="725.50507"
       id="text4089-8-7"
       sodipodi:linespacing="125%"><tspan
         sodipodi:role="line"
         id="tspan4091-4-6"
         x="575.09229"
         y="725.50507"
         style="font-style:normal;font-variant:normal;font-weight:normal;font-stretch:normal;text-align:center;text-anchor:middle;font-family:Helvetica LT Std;-inkscape-font-specification:Helvetica LT Std">Third World</tspan></text>
    <text
       xml:space="preserve"
       style="font-size:40px;font-style:normal;font-variant:normal;font-weight:normal;font-stretch:normal;line-height:125%;letter-spacing:0px;word-spacing:0px;fill:#000000;fill-opacity:1;stroke:none;font-family:Helvetica LT Std;-inkscape-font-specification:Helvetica LT Std"
       x="250.12219"
       y="324.36218"
       id="text4089-0"
       sodipodi:linespacing="125%"><tspan
         sodipodi:role="line"
         id="tspan4091-0"
         x="250.12219"
         y="324.36218"
         style="font-style:normal;font-variant:normal;font-weight:bold;font-stretch:normal;text-align:center;text-anchor:middle;font-family:Helvetica Neue LT Com;-inkscape-font-specification:Helvetica Neue LT Com Bold">Share of unpaid labour hours</tspan></text>
  </g>
</svg>
