<?xml version="1.0" encoding="UTF-8" standalone="no"?>
<svg
   xmlns:dc="http://purl.org/dc/elements/1.1/"
   xmlns:cc="http://creativecommons.org/ns#"
   xmlns:rdf="http://www.w3.org/1999/02/22-rdf-syntax-ns#"
   xmlns:svg="http://www.w3.org/2000/svg"
   xmlns="http://www.w3.org/2000/svg"
   xmlns:sodipodi="http://sodipodi.sourceforge.net/DTD/sodipodi-0.dtd"
   xmlns:inkscape="http://www.inkscape.org/namespaces/inkscape"
   width="288.53149"
   height="288.53149"
   viewBox="0 0 8142.9999 8142.9998"
   version="1.1"
   xml:space="preserve"
   id="svg2"
   inkscape:version="0.48.5 r10040"
   sodipodi:docname="sp.svg"
   style="stroke-width:28.22200012;stroke-linejoin:round"><metadata
     id="metadata34"><rdf:RDF><cc:Work
         rdf:about=""><dc:format>image/svg+xml</dc:format><dc:type
           rdf:resource="http://purl.org/dc/dcmitype/StillImage" /></cc:Work></rdf:RDF></metadata><defs
     id="defs32" /><sodipodi:namedview
     pagecolor="#ffffff"
     bordercolor="#666666"
     borderopacity="1"
     objecttolerance="10"
     gridtolerance="10"
     guidetolerance="10"
     inkscape:pageopacity="0"
     inkscape:pageshadow="2"
     inkscape:window-width="1366"
     inkscape:window-height="741"
     id="namedview30"
     showgrid="false"
     fit-margin-top="0"
     fit-margin-left="0"
     fit-margin-right="0"
     fit-margin-bottom="0"
     inkscape:zoom="1.3370278"
     inkscape:cx="66.149036"
     inkscape:cy="160.55881"
     inkscape:window-x="0"
     inkscape:window-y="0"
     inkscape:window-maximized="0"
     inkscape:current-layer="svg2" /><path
     d="m 4072,-5.3829617e-5 c -428,0 -852,66.999999829617 -1259,199.000003829617 -406,132 -789,327 -1135,578 -346,250.99995 -650,554.99995 -901,900.99995 -251,346 -446,729 -578,1135 -132,407 -199,831 -199,1257 0,428 67,852 199,1259 132,406 327,789 578,1135 251,346 555,650 901,901 346,251 729,446 1135,578 407,132 831,200 1258,200 428,0 851,-68 1258,-200 406,-132 789,-327 1135,-578 346,-251 650,-555 901,-901 251,-346 446,-729 578,-1135 132,-407 200,-831 200,-1259 0,-47 -1,-94 -3,-141 l -4068,142 0,0 0,0 0,0 0,0 0,0 0,0 0,0 0,0 0,0 0,0 0,0 0,0 0,0 0,0 0,0 0,0 0,-4070.999953829617 z"
     id="path6"
     inkscape:connector-curvature="0"
     style="fill:#5599ff;stroke:none" /><path
     d="m 8140,3928.9999 c -13,-378 -79,-754 -197,-1116 -132,-406 -327,-789 -578,-1135 -251,-346 -555,-650 -901,-900.99995 -346,-251 -729,-446 -1135,-578 C 4922,66.999946 4499,-5.3829617e-5 4072,-5.3829617e-5 L 4072,4070.9999 l 0,0 0,0 0,0 0,0 0,0 4068,-142 z"
     id="path8"
     inkscape:connector-curvature="0"
     style="fill:#ff5555;stroke:none" /><text
     xml:space="preserve"
     style="font-size:1379.32885742px;font-style:normal;font-variant:normal;font-weight:normal;font-stretch:normal;line-height:125%;letter-spacing:0px;word-spacing:0px;fill:#ffd5d5;fill-opacity:1;stroke:none;font-family:Helvetica LT Std;-inkscape-font-specification:Helvetica LT Std"
     x="4553.9204"
     y="3460.8799"
     id="text3015-9"
     sodipodi:linespacing="125%"><tspan
       sodipodi:role="line"
       x="4553.9204"
       y="3460.8799"
       id="tspan3019-5"
       style="font-size:2482.79248047px;fill:#ffd5d5">♂</tspan></text>
<text
     xml:space="preserve"
     style="font-size:1379.32885742px;font-style:normal;font-variant:normal;font-weight:normal;font-stretch:normal;line-height:125%;letter-spacing:0px;word-spacing:0px;fill:#d5e5ff;fill-opacity:1;stroke:none;font-family:Helvetica LT Std;-inkscape-font-specification:Helvetica LT Std"
     x="1756.4196"
     y="5989.3696"
     id="text3011-1"
     sodipodi:linespacing="125%"><tspan
       sodipodi:role="line"
       id="tspan3013-5"
       x="1756.4196"
       y="5989.3696"
       style="font-size:2482.79248047px;fill:#d5e5ff">♀</tspan></text>
</svg>