<?xml version="1.0" encoding="UTF-8" standalone="no"?>
<svg
   xmlns:dc="http://purl.org/dc/elements/1.1/"
   xmlns:cc="http://creativecommons.org/ns#"
   xmlns:rdf="http://www.w3.org/1999/02/22-rdf-syntax-ns#"
   xmlns:svg="http://www.w3.org/2000/svg"
   xmlns="http://www.w3.org/2000/svg"
   xmlns:sodipodi="http://sodipodi.sourceforge.net/DTD/sodipodi-0.dtd"
   xmlns:inkscape="http://www.inkscape.org/namespaces/inkscape"
   width="288.53149"
   height="288.53149"
   viewBox="0 0 8142.9999 8142.9998"
   version="1.1"
   xml:space="preserve"
   id="svg2"
   inkscape:version="0.48.5 r10040"
   sodipodi:docname="first-world.svg"
   style="stroke-width:28.22200012;stroke-linejoin:round"><metadata
     id="metadata34"><rdf:RDF><cc:Work
         rdf:about=""><dc:format>image/svg+xml</dc:format><dc:type
           rdf:resource="http://purl.org/dc/dcmitype/StillImage" /></cc:Work></rdf:RDF></metadata><defs
     id="defs32" /><sodipodi:namedview
     pagecolor="#ffffff"
     bordercolor="#666666"
     borderopacity="1"
     objecttolerance="10"
     gridtolerance="10"
     guidetolerance="10"
     inkscape:pageopacity="0"
     inkscape:pageshadow="2"
     inkscape:window-width="1366"
     inkscape:window-height="741"
     id="namedview30"
     showgrid="false"
     fit-margin-top="0"
     fit-margin-left="0"
     fit-margin-right="0"
     fit-margin-bottom="0"
     inkscape:zoom="0.9454214"
     inkscape:cx="165.1411"
     inkscape:cy="178.34295"
     inkscape:window-x="0"
     inkscape:window-y="0"
     inkscape:window-maximized="0"
     inkscape:current-layer="svg2"
     showguides="true"
     inkscape:guide-bbox="true" /><g
     id="g3030"><path
       id="path6-0"
       d="M 4071.9999,4.9999997e-5 C 3644.0001,4.9999997e-5 3220.0001,67.00005 2813,199.00005 c -406,132 -789,327 -1135,578 C 1332.0001,1028 1028.0001,1332 777.00002,1678 c -251,345.9997 -446,728.9997 -578,1134.9997 -131.999995,407 -198.999995000001,831 -198.999995000001,1257 0,428 67.000000000001,852 198.999995000001,1259 132,406.001 327,789 578,1135 251.00008,346 555.00008,650 900.99998,901 346,251 729,446 1135,578.001 407.0001,131.999 831.0001,199.999 1258.9999,199.999 191.0001,0 382,-14 570.9999,-41 l -570.9999,-4030.999 0,0 0,0 0,0 0,0 0,0 0,0 0,0 0,0 0,0 0,0 0,0 0,-4071.00065 z"
       inkscape:connector-curvature="0"
       style="fill:#5599ff;stroke:none" /><path
       id="path8-7"
       d="m 4642.9998,8101.9997 c 233.0002,-33 462.0001,-86 686.0001,-158.999 406.0001,-132.001 789,-327.001 1134.9999,-578.001 346.0002,-251 650.0001,-555 901.0001,-901 250.9999,-346 446,-728.999 578.0001,-1135 131.9999,-407 199.9999,-831 199.9999,-1257.999 0,-427.001 -68,-851.001 -199.9999,-1258.001 -132.0001,-406 -327.0002,-789 -578.0001,-1134.9997 -251,-346 -554.9999,-650 -901.0001,-900.99995 -345.9999,-251 -728.9998,-446 -1134.9999,-578 -407,-132 -830,-199.000000000003 -1257,-199.000000000003 l 0,4071.000650000003 0,0 0,0 0,0 0,0 0,0 0,0 0,0 0,0 0,0 0,0 570.9999,4030.999 z"
       inkscape:connector-curvature="0"
       style="fill:#ff5555;stroke:none" /><text
       sodipodi:linespacing="125%"
       id="text3011"
       y="5086.3267"
       x="1271.7684"
       style="font-size:1379.32910156px;font-style:normal;font-variant:normal;font-weight:normal;font-stretch:normal;line-height:125%;letter-spacing:0px;word-spacing:0px;fill:#d5e5ff;fill-opacity:1;stroke:none;font-family:Helvetica LT Std;-inkscape-font-specification:Helvetica LT Std"
       xml:space="preserve"><tspan
         style="font-size:2482.79248047px;fill:#d5e5ff"
         y="5086.3267"
         x="1271.7684"
         id="tspan3013"
         sodipodi:role="line">♀</tspan></text>
<text
       sodipodi:linespacing="125%"
       id="text3015"
       y="4533.2554"
       x="4935.6211"
       style="font-size:1379.32910156px;font-style:normal;font-variant:normal;font-weight:normal;font-stretch:normal;line-height:125%;letter-spacing:0px;word-spacing:0px;fill:#ffd5d5;fill-opacity:1;stroke:none;font-family:Helvetica LT Std;-inkscape-font-specification:Helvetica LT Std"
       xml:space="preserve"><tspan
         style="font-size:2482.79248047px;fill:#ffd5d5"
         id="tspan3019"
         y="4533.2554"
         x="4935.6211"
         sodipodi:role="line">♂</tspan></text>
</g></svg>