<?xml version="1.0" encoding="UTF-8" standalone="no"?>
<svg
   xmlns:dc="http://purl.org/dc/elements/1.1/"
   xmlns:cc="http://creativecommons.org/ns#"
   xmlns:rdf="http://www.w3.org/1999/02/22-rdf-syntax-ns#"
   xmlns:svg="http://www.w3.org/2000/svg"
   xmlns="http://www.w3.org/2000/svg"
   xmlns:sodipodi="http://sodipodi.sourceforge.net/DTD/sodipodi-0.dtd"
   xmlns:inkscape="http://www.inkscape.org/namespaces/inkscape"
   width="288.53149"
   height="288.53149"
   viewBox="0 0 8142.9999 8142.9998"
   version="1.1"
   xml:space="preserve"
   id="svg2"
   inkscape:version="0.48.5 r10040"
   sodipodi:docname="semi-periphery.svg"
   style="stroke-width:28.22200012;stroke-linejoin:round"><metadata
     id="metadata34"><rdf:RDF><cc:Work
         rdf:about=""><dc:format>image/svg+xml</dc:format><dc:type
           rdf:resource="http://purl.org/dc/dcmitype/StillImage" /></cc:Work></rdf:RDF></metadata><defs
     id="defs32" /><sodipodi:namedview
     pagecolor="#ffffff"
     bordercolor="#666666"
     borderopacity="1"
     objecttolerance="10"
     gridtolerance="10"
     guidetolerance="10"
     inkscape:pageopacity="0"
     inkscape:pageshadow="2"
     inkscape:window-width="1366"
     inkscape:window-height="741"
     id="namedview30"
     showgrid="false"
     fit-margin-top="0"
     fit-margin-left="0"
     fit-margin-right="0"
     fit-margin-bottom="0"
     inkscape:zoom="0.9454214"
     inkscape:cx="75.708874"
     inkscape:cy="186.35927"
     inkscape:window-x="0"
     inkscape:window-y="0"
     inkscape:window-maximized="0"
     inkscape:current-layer="svg2" /><g
     id="g3022"><path
       id="path6-6"
       d="M 4071.9998,0 C 3644,0 3220,67 2812.9999,199 c -406,132 -789,327 -1135,578 C 1332,1028 1028,1332 777.00003,1678 c -251,346 -446,729 -578,1135 -132,407.0001 -199,831 -199,1256.9998 0,428.0001 67,852.0001 199,1259.0001 132,406.0001 327,788.9999 578,1134.9998 C 1028,6809.9999 1332,7113.9998 1677.9999,7364.9998 c 346,251 729,446 1135,578.0002 407.0001,131.9998 831.0001,199.9998 1258,199.9998 313,0 622.9999,-36 928,-107.9999 L 4071.9998,4071 l 0,0 0,0 0,0 0,0 0,0 0,0 0,0 0,0 0,0 0,0 0,0 0,-4071 z"
       inkscape:connector-curvature="0"
       style="fill:#5599ff;stroke:none" /><path
       id="path8-6"
       d="m 4998.9999,8034.9999 c 111,-26 221.0001,-56 329.9999,-91.9999 406.0001,-132.0002 789,-327.0002 1134.9999,-578.0002 346.0002,-251 650.0002,-554.9999 901.0002,-901.0001 250.9999,-345.9999 446,-728.9997 578.0001,-1134.9998 131.9999,-407 199.9999,-831 199.9999,-1257.9999 0,-427 -68,-850.9999 -199.9999,-1258 -132.0001,-406 -327.0002,-789 -578.0001,-1135 -251,-346 -555,-650 -901.0002,-901 -345.9999,-251 -728.9998,-446 -1134.9999,-578 -407,-132 -830,-199 -1257,-199 l -0.999,0 0.999,4071 0,0 0,0 0,0 0,0 0,0 0,0 0,0 0,0 0,0 0,0 0,0 927.0001,3963.9999 z"
       inkscape:connector-curvature="0"
       style="fill:#ff5555;stroke:none" /><text
       sodipodi:linespacing="125%"
       id="text3011"
       y="5227.4375"
       x="1441.1019"
       style="font-size:1379.32897949px;font-style:normal;font-variant:normal;font-weight:normal;font-stretch:normal;line-height:125%;letter-spacing:0px;word-spacing:0px;fill:#d5e5ff;fill-opacity:1;stroke:none;font-family:Helvetica LT Std;-inkscape-font-specification:Helvetica LT Std"
       xml:space="preserve"><tspan
         style="font-size:2482.79248047px;fill:#d5e5ff"
         y="5227.4375"
         x="1441.1019"
         id="tspan3013"
         sodipodi:role="line">♀</tspan></text>
<text
       sodipodi:linespacing="125%"
       id="text3015"
       y="4392.1445"
       x="4822.7324"
       style="font-size:1379.32897949px;font-style:normal;font-variant:normal;font-weight:normal;font-stretch:normal;line-height:125%;letter-spacing:0px;word-spacing:0px;fill:#ffd5d5;fill-opacity:1;stroke:none;font-family:Helvetica LT Std;-inkscape-font-specification:Helvetica LT Std"
       xml:space="preserve"><tspan
         style="font-size:2482.79248047px;fill:#ffd5d5"
         id="tspan3019"
         y="4392.1445"
         x="4822.7324"
         sodipodi:role="line">♂</tspan></text>
</g></svg>