<?xml version="1.0" encoding="UTF-8" standalone="no"?>
<!-- Created with Inkscape (http://www.inkscape.org/) -->

<svg
   xmlns:dc="http://purl.org/dc/elements/1.1/"
   xmlns:cc="http://creativecommons.org/ns#"
   xmlns:rdf="http://www.w3.org/1999/02/22-rdf-syntax-ns#"
   xmlns:svg="http://www.w3.org/2000/svg"
   xmlns="http://www.w3.org/2000/svg"
   xmlns:sodipodi="http://sodipodi.sourceforge.net/DTD/sodipodi-0.dtd"
   xmlns:inkscape="http://www.inkscape.org/namespaces/inkscape"
   width="937.10291"
   height="438.94287"
   id="svg3990"
   version="1.1"
   inkscape:version="0.48.5 r10040"
   sodipodi:docname="share-of-labour.svg">
  <defs
     id="defs3992" />
  <sodipodi:namedview
     id="base"
     pagecolor="#ffffff"
     bordercolor="#666666"
     borderopacity="1.0"
     inkscape:pageopacity="0.0"
     inkscape:pageshadow="2"
     inkscape:zoom="1"
     inkscape:cx="485.32275"
     inkscape:cy="243.95534"
     inkscape:document-units="px"
     inkscape:current-layer="layer1"
     showgrid="false"
     fit-margin-top="0"
     fit-margin-left="0"
     fit-margin-right="0"
     fit-margin-bottom="0"
     inkscape:window-width="1366"
     inkscape:window-height="741"
     inkscape:window-x="0"
     inkscape:window-y="0"
     inkscape:window-maximized="0" />
  <metadata
     id="metadata3995">
    <rdf:RDF>
      <cc:Work
         rdf:about="">
        <dc:format>image/svg+xml</dc:format>
        <dc:type
           rdf:resource="http://purl.org/dc/dcmitype/StillImage" />
        <dc:title />
      </cc:Work>
    </rdf:RDF>
  </metadata>
  <g
     inkscape:label="Layer 1"
     inkscape:groupmode="layer"
     id="layer1"
     transform="translate(218.55145,-295.12218)">
    <g
       transform="matrix(0.03543307,0,0,0.03543307,430.01996,381.91535)"
       style="stroke-width:28.22200012;stroke-linejoin:round"
       id="g3014">
      <path
         id="path6"
         d="m 4071.9999,-1.5e-4 c -427.9998,0 -851.9998,67 -1258.9999,199 -406,132 -789,327 -1135,577.9999 -345.9999,251.00005 -649.9999,555.00005 -900.99995,901.00005 -251,346 -446,729 -578,1135 -132,407.0001 -199,831.0002 -199,1257.0002 0,428 67,852 199,1259 132,406 327,789 578,1135 251.00005,346 555.00005,650 900.99995,901 346,251 729,446 1135,578 407.0001,132 831.0001,200 1258,200 427.9998,0 850.9998,-68 1257.9998,-200 72,-23 144,-49 215,-76 l -1471.9999,-3796 0,0 0,0 0,0 0,0 0,0 0,0 0,0 0,0 0,0 0,0 0,0 0,0 0,-4071.00015 z"
         inkscape:connector-curvature="0"
         style="fill:#5599ff;stroke:none" />
      <path
         id="path8"
         d="m 5543.9998,7867 c 326.9999,-127 635.9999,-296 919.9999,-502 346.0003,-251 650.0001,-555 901.0001,-901 251,-346 446,-729 578.0001,-1135 131.9999,-407 199.9999,-831 199.9999,-1258 0,-427 -68,-851.0001 -199.9999,-1258.0002 -132.0001,-406 -327.0002,-789 -578.0001,-1135 -251,-346 -554.9998,-650 -901.0001,-901.00005 -345.9999,-250.9999 -728.9998,-445.9999 -1134.9999,-577.9999 -407,-132 -830,-199 -1256.9999,-199 l 0,4071.00015 0,0 0,0 0,0 0,0 0,0 0,0 0,0 0,0 0,0 1471.9999,3796 z"
         inkscape:connector-curvature="0"
         style="fill:#ff5555;stroke:none" />
      <text
         sodipodi:linespacing="125%"
         id="text3011-4"
         y="5370.3267"
         x="1328.2125"
         style="font-size:1379.32897949px;font-style:normal;font-variant:normal;font-weight:normal;font-stretch:normal;line-height:125%;letter-spacing:0px;word-spacing:0px;fill:#d5e5ff;fill-opacity:1;stroke:none;font-family:Helvetica LT Std;-inkscape-font-specification:Helvetica LT Std"
         xml:space="preserve"><tspan
           style="font-size:2482.79248047px;fill:#d5e5ff"
           y="5370.3267"
           x="1328.2125"
           id="tspan3013-48"
           sodipodi:role="line">♀</tspan></text>
      <text
         sodipodi:linespacing="125%"
         id="text3015-6"
         y="4249.2554"
         x="4921.7974"
         style="font-size:1379.32897949px;font-style:normal;font-variant:normal;font-weight:normal;font-stretch:normal;line-height:125%;letter-spacing:0px;word-spacing:0px;fill:#ffd5d5;fill-opacity:1;stroke:none;font-family:Helvetica LT Std;-inkscape-font-specification:Helvetica LT Std"
         xml:space="preserve"><tspan
           style="font-size:2482.79248047px;fill:#ffd5d5"
           id="tspan3019-4"
           y="4249.2554"
           x="4921.7974"
           sodipodi:role="line">♂</tspan></text>
    </g>
    <g
       transform="matrix(0.03543307,0,0,0.03543307,105.54362,381.91535)"
       style="stroke-width:28.22200012;stroke-linejoin:round"
       id="g3022">
      <path
         id="path6-6"
         d="M 4071.9998,0 C 3644,0 3220,67 2812.9999,199 c -406,132 -789,327 -1135,578 C 1332,1028 1028,1332 777.00003,1678 c -251,346 -446,729 -578,1135 -132,407.0001 -199,831 -199,1256.9998 0,428.0001 67,852.0001 199,1259.0001 132,406.0001 327,788.9999 578,1134.9998 C 1028,6809.9999 1332,7113.9998 1677.9999,7364.9998 c 346,251 729,446 1135,578.0002 407.0001,131.9998 831.0001,199.9998 1258,199.9998 313,0 622.9999,-36 928,-107.9999 L 4071.9998,4071 l 0,0 0,0 0,0 0,0 0,0 0,0 0,0 0,0 0,0 0,0 0,0 0,-4071 z"
         inkscape:connector-curvature="0"
         style="fill:#5599ff;stroke:none" />
      <path
         id="path8-6-3"
         d="m 4998.9999,8034.9999 c 111,-26 221.0001,-56 329.9999,-91.9999 406.0001,-132.0002 789,-327.0002 1134.9999,-578.0002 346.0002,-251 650.0002,-554.9999 901.0002,-901.0001 250.9999,-345.9999 446,-728.9997 578.0001,-1134.9998 131.9999,-407 199.9999,-831 199.9999,-1257.9999 0,-427 -68,-850.9999 -199.9999,-1258 -132.0001,-406 -327.0002,-789 -578.0001,-1135 -251,-346 -555,-650 -901.0002,-901 -345.9999,-251 -728.9998,-446 -1134.9999,-578 -407,-132 -830,-199 -1257,-199 l -0.999,0 0.999,4071 0,0 0,0 0,0 0,0 0,0 0,0 0,0 0,0 0,0 0,0 0,0 927.0001,3963.9999 z"
         inkscape:connector-curvature="0"
         style="fill:#ff5555;stroke:none" />
      <text
         sodipodi:linespacing="125%"
         id="text3011"
         y="5227.4375"
         x="1441.1019"
         style="font-size:1379.32897949px;font-style:normal;font-variant:normal;font-weight:normal;font-stretch:normal;line-height:125%;letter-spacing:0px;word-spacing:0px;fill:#d5e5ff;fill-opacity:1;stroke:none;font-family:Helvetica LT Std;-inkscape-font-specification:Helvetica LT Std"
         xml:space="preserve"><tspan
           style="font-size:2482.79248047px;fill:#d5e5ff"
           y="5227.4375"
           x="1441.1019"
           id="tspan3013"
           sodipodi:role="line">♀</tspan></text>
      <text
         sodipodi:linespacing="125%"
         id="text3015"
         y="4392.1445"
         x="4822.7324"
         style="font-size:1379.32897949px;font-style:normal;font-variant:normal;font-weight:normal;font-stretch:normal;line-height:125%;letter-spacing:0px;word-spacing:0px;fill:#ffd5d5;fill-opacity:1;stroke:none;font-family:Helvetica LT Std;-inkscape-font-specification:Helvetica LT Std"
         xml:space="preserve"><tspan
           style="font-size:2482.79248047px;fill:#ffd5d5"
           id="tspan3019"
           y="4392.1445"
           x="4822.7324"
           sodipodi:role="line">♂</tspan></text>
    </g>
    <g
       transform="matrix(0.03543307,0,0,0.03543307,-218.55145,381.91535)"
       style="stroke-width:28.22200012;stroke-linejoin:round"
       id="g3030">
      <path
         id="path6-0"
         d="M 4071.9999,4.9999997e-5 C 3644.0001,4.9999997e-5 3220.0001,67.00005 2813,199.00005 c -406,132 -789,327 -1135,578 C 1332.0001,1028 1028.0001,1332 777.00002,1678 c -251,345.9997 -446,728.9997 -578,1134.9997 -131.999995,407 -198.999995000001,831 -198.999995000001,1257 0,428 67.000000000001,852 198.999995000001,1259 132,406.001 327,789 578,1135 251.00008,346 555.00008,650 900.99998,901 346,251 729,446 1135,578.001 407.0001,131.999 831.0001,199.999 1258.9999,199.999 191.0001,0 382,-14 570.9999,-41 l -570.9999,-4030.999 0,0 0,0 0,0 0,0 0,0 0,0 0,0 0,0 0,0 0,0 0,0 0,-4071.000649999999 z"
         inkscape:connector-curvature="0"
         style="fill:#5599ff;stroke:none" />
      <path
         id="path8-7"
         d="m 4642.9998,8101.9997 c 233.0002,-33 462.0001,-86 686.0001,-158.999 406.0001,-132.001 789,-327.001 1134.9999,-578.001 346.0002,-251 650.0001,-555 901.0001,-901 250.9999,-346 446,-728.999 578.0001,-1135 131.9999,-407 199.9999,-831 199.9999,-1257.999 0,-427.001 -68,-851.001 -199.9999,-1258.001 -132.0001,-406 -327.0002,-789 -578.0001,-1134.9997 -251,-346 -554.9999,-650 -901.0001,-900.99995 -345.9999,-251 -728.9998,-446 -1134.9999,-578 -407,-132 -830,-199.000000000003 -1257,-199.000000000003 l 0,4071.000650000003 0,0 0,0 0,0 0,0 0,0 0,0 0,0 0,0 0,0 0,0 570.9999,4030.999 z"
         inkscape:connector-curvature="0"
         style="fill:#ff5555;stroke:none" />
      <text
         sodipodi:linespacing="125%"
         id="text3011-0"
         y="5086.3267"
         x="1271.7684"
         style="font-size:1379.32910156px;font-style:normal;font-variant:normal;font-weight:normal;font-stretch:normal;line-height:125%;letter-spacing:0px;word-spacing:0px;fill:#d5e5ff;fill-opacity:1;stroke:none;font-family:Helvetica LT Std;-inkscape-font-specification:Helvetica LT Std"
         xml:space="preserve"><tspan
           style="font-size:2482.79248047px;fill:#d5e5ff"
           y="5086.3267"
           x="1271.7684"
           id="tspan3013-0"
           sodipodi:role="line">♀</tspan></text>
      <text
         sodipodi:linespacing="125%"
         id="text3015-2"
         y="4533.2554"
         x="4935.6211"
         style="font-size:1379.32910156px;font-style:normal;font-variant:normal;font-weight:normal;font-stretch:normal;line-height:125%;letter-spacing:0px;word-spacing:0px;fill:#ffd5d5;fill-opacity:1;stroke:none;font-family:Helvetica LT Std;-inkscape-font-specification:Helvetica LT Std"
         xml:space="preserve"><tspan
           style="font-size:2482.79248047px;fill:#ffd5d5"
           id="tspan3019-0"
           y="4533.2554"
           x="4935.6211"
           sodipodi:role="line">♂</tspan></text>
    </g>
    <text
       xml:space="preserve"
       style="font-size:40px;font-style:normal;font-variant:normal;font-weight:normal;font-stretch:normal;line-height:125%;letter-spacing:0px;word-spacing:0px;fill:#000000;fill-opacity:1;stroke:none;font-family:Helvetica LT Std;-inkscape-font-specification:Helvetica LT Std"
       x="-74.599144"
       y="725.50507"
       id="text4089"
       sodipodi:linespacing="125%"><tspan
         sodipodi:role="line"
         id="tspan4091"
         x="-74.599144"
         y="725.50507"
         style="font-style:normal;font-variant:normal;font-weight:normal;font-stretch:normal;text-align:center;text-anchor:middle;font-family:Helvetica LT Std;-inkscape-font-specification:Helvetica LT Std">First World</tspan></text>
    <text
       xml:space="preserve"
       style="font-size:40px;font-style:normal;font-variant:normal;font-weight:normal;font-stretch:normal;line-height:125%;letter-spacing:0px;word-spacing:0px;fill:#000000;fill-opacity:1;stroke:none;font-family:Helvetica LT Std;-inkscape-font-specification:Helvetica LT Std"
       x="249.23999"
       y="725.50507"
       id="text4089-8"
       sodipodi:linespacing="125%"><tspan
         sodipodi:role="line"
         id="tspan4091-4"
         x="249.23999"
         y="725.50507"
         style="font-style:normal;font-variant:normal;font-weight:normal;font-stretch:normal;text-align:center;text-anchor:middle;font-family:Helvetica LT Std;-inkscape-font-specification:Helvetica LT Std">Semi-periphery</tspan></text>
    <text
       xml:space="preserve"
       style="font-size:40px;font-style:normal;font-variant:normal;font-weight:normal;font-stretch:normal;line-height:125%;letter-spacing:0px;word-spacing:0px;fill:#000000;fill-opacity:1;stroke:none;font-family:Helvetica LT Std;-inkscape-font-specification:Helvetica LT Std"
       x="575.09229"
       y="725.50507"
       id="text4089-8-7"
       sodipodi:linespacing="125%"><tspan
         sodipodi:role="line"
         id="tspan4091-4-6"
         x="575.09229"
         y="725.50507"
         style="font-style:normal;font-variant:normal;font-weight:normal;font-stretch:normal;text-align:center;text-anchor:middle;font-family:Helvetica LT Std;-inkscape-font-specification:Helvetica LT Std">Third World</tspan></text>
    <text
       xml:space="preserve"
       style="font-size:40px;font-style:normal;font-variant:normal;font-weight:normal;font-stretch:normal;line-height:125%;letter-spacing:0px;word-spacing:0px;fill:#000000;fill-opacity:1;stroke:none;font-family:Helvetica LT Std;-inkscape-font-specification:Helvetica LT Std"
       x="250.12219"
       y="324.36218"
       id="text4089-0"
       sodipodi:linespacing="125%"><tspan
         sodipodi:role="line"
         id="tspan4091-0"
         x="250.12219"
         y="324.36218"
         style="font-style:normal;font-variant:normal;font-weight:bold;font-stretch:normal;text-align:center;text-anchor:middle;font-family:Helvetica Neue LT Com;-inkscape-font-specification:Helvetica Neue LT Com Bold">Share of labour hours</tspan></text>
  </g>
</svg>
