<?xml version="1.0" encoding="UTF-8" standalone="no"?>
<svg
   xmlns:dc="http://purl.org/dc/elements/1.1/"
   xmlns:cc="http://creativecommons.org/ns#"
   xmlns:rdf="http://www.w3.org/1999/02/22-rdf-syntax-ns#"
   xmlns:svg="http://www.w3.org/2000/svg"
   xmlns="http://www.w3.org/2000/svg"
   xmlns:sodipodi="http://sodipodi.sourceforge.net/DTD/sodipodi-0.dtd"
   xmlns:inkscape="http://www.inkscape.org/namespaces/inkscape"
   width="288.53149"
   height="288.53149"
   viewBox="0 0 8142.9999 8142.9998"
   version="1.1"
   xml:space="preserve"
   id="svg3011"
   inkscape:version="0.48.5 r10040"
   sodipodi:docname="third-world.svg"
   style="stroke-width:28.22200012;stroke-linejoin:round"
   inkscape:export-filename="/home/alyx/Dropbox/site_blog/images/2014-09-29-what-percentage-of-labour-is-performed-by-women/thumbnail.png"
   inkscape:export-xdpi="124.77"
   inkscape:export-ydpi="124.77"><metadata
     id="metadata3043"><rdf:RDF><cc:Work
         rdf:about=""><dc:format>image/svg+xml</dc:format><dc:type
           rdf:resource="http://purl.org/dc/dcmitype/StillImage" /><dc:title /></cc:Work></rdf:RDF></metadata><defs
     id="defs3041" /><sodipodi:namedview
     pagecolor="#ffffff"
     bordercolor="#666666"
     borderopacity="1"
     objecttolerance="10"
     gridtolerance="10"
     guidetolerance="10"
     inkscape:pageopacity="0"
     inkscape:pageshadow="2"
     inkscape:window-width="1366"
     inkscape:window-height="741"
     id="namedview3039"
     showgrid="false"
     fit-margin-top="0"
     fit-margin-left="0"
     fit-margin-right="0"
     fit-margin-bottom="0"
     inkscape:zoom="0.9454214"
     inkscape:cx="67.724609"
     inkscape:cy="197.9059"
     inkscape:window-x="0"
     inkscape:window-y="0"
     inkscape:window-maximized="0"
     inkscape:current-layer="svg3011" /><g
     id="g3014"><path
       id="path6"
       d="m 4071.9999,-1.5e-4 c -427.9998,0 -851.9998,67 -1258.9999,199 -406,132 -789,327 -1135,577.9999 -345.9999,251.00005 -649.9999,555.00005 -900.99995,901.00005 -251,346 -446,729 -578,1135 -132,407.0001 -199,831.0002 -199,1257.0002 0,428 67,852 199,1259 132,406 327,789 578,1135 251.00005,346 555.00005,650 900.99995,901 346,251 729,446 1135,578 407.0001,132 831.0001,200 1258,200 427.9998,0 850.9998,-68 1257.9998,-200 72,-23 144,-49 215,-76 l -1471.9999,-3796 0,0 0,0 0,0 0,0 0,0 0,0 0,0 0,0 0,0 0,0 0,0 0,0 0,-4071.00015 z"
       inkscape:connector-curvature="0"
       style="fill:#5599ff;stroke:none" /><path
       id="path8"
       d="m 5543.9998,7867 c 326.9999,-127 635.9999,-296 919.9999,-502 346.0003,-251 650.0001,-555 901.0001,-901 251,-346 446,-729 578.0001,-1135 131.9999,-407 199.9999,-831 199.9999,-1258 0,-427 -68,-851.0001 -199.9999,-1258.0002 -132.0001,-406 -327.0002,-789 -578.0001,-1135 -251,-346 -554.9998,-650 -901.0001,-901.00005 -345.9999,-250.9999 -728.9998,-445.9999 -1134.9999,-577.9999 -407,-132 -830,-199 -1256.9999,-199 l 0,4071.00015 0,0 0,0 0,0 0,0 0,0 0,0 0,0 0,0 0,0 1471.9999,3796 z"
       inkscape:connector-curvature="0"
       style="fill:#ff5555;stroke:none" /><text
       sodipodi:linespacing="125%"
       id="text3011"
       y="5370.3267"
       x="1328.2125"
       style="font-size:1379.32897949px;font-style:normal;font-variant:normal;font-weight:normal;font-stretch:normal;line-height:125%;letter-spacing:0px;word-spacing:0px;fill:#d5e5ff;fill-opacity:1;stroke:none;font-family:Helvetica LT Std;-inkscape-font-specification:Helvetica LT Std"
       xml:space="preserve"><tspan
         style="font-size:2482.79248047px;fill:#d5e5ff"
         y="5370.3267"
         x="1328.2125"
         id="tspan3013"
         sodipodi:role="line">♀</tspan></text>
<text
       sodipodi:linespacing="125%"
       id="text3015"
       y="4249.2554"
       x="4921.7974"
       style="font-size:1379.32897949px;font-style:normal;font-variant:normal;font-weight:normal;font-stretch:normal;line-height:125%;letter-spacing:0px;word-spacing:0px;fill:#ffd5d5;fill-opacity:1;stroke:none;font-family:Helvetica LT Std;-inkscape-font-specification:Helvetica LT Std"
       xml:space="preserve"><tspan
         style="font-size:2482.79248047px;fill:#ffd5d5"
         id="tspan3019"
         y="4249.2554"
         x="4921.7974"
         sodipodi:role="line">♂</tspan></text>
</g></svg>